<svg width="72" height="72" viewBox="0 0 72 72" fill="none" xmlns="http://www.w3.org/2000/svg">
<g clip-path="url(#clip0_3425_35)">
<path d="M12.75 0.899902H59.25C66.3 0.899902 72 6.5999 72 13.6499V58.3499C72 65.3999 66.3 71.0999 59.25 71.0999H12.75C5.7 71.0999 0 65.3999 0 58.3499V13.6499C0 6.5999 5.7 0.899902 12.75 0.899902Z" fill="#330000"/>
<path d="M34.8 42.9H23.64L21.36 49.95C21.3 50.22 21.06 50.4 20.79 50.37H15.15C14.82 50.37 14.73 50.19 14.82 49.83L24.48 22.02C24.57 21.72 24.66 21.39 24.78 21.03C24.9 20.4 24.96 19.74 24.96 19.08C24.93 18.93 25.05 18.78 25.2 18.75H32.97C33.21 18.75 33.33 18.84 33.36 18.99L44.31 49.89C44.4 50.22 44.31 50.37 44.01 50.37H37.74C37.53 50.4 37.32 50.25 37.26 50.04L34.8 42.9ZM25.38 36.81H33C32.82 36.18 32.58 35.43 32.31 34.65C32.04 33.84 31.77 32.97 31.5 32.07C31.2 31.14 30.93 30.24 30.63 29.31C30.33 28.38 30.06 27.51 29.82 26.64C29.58 25.8 29.37 25.02 29.16 24.3H29.1C28.83 25.59 28.5 26.88 28.08 28.17C27.63 29.61 27.18 31.11 26.7 32.61C26.28 34.14 25.83 35.55 25.38 36.81ZM51 24C50.01 24.03 49.05 23.64 48.33 22.95C47.64 22.2 47.28 21.21 47.31 20.19C47.28 19.17 47.67 18.21 48.39 17.52C49.11 16.83 50.07 16.47 51.06 16.47C52.23 16.47 53.13 16.83 53.79 17.52C54.45 18.24 54.81 19.2 54.78 20.19C54.81 21.21 54.45 22.2 53.73 22.95C53.04 23.67 52.02 24.06 51 24ZM47.64 50.04V26.94C47.64 26.64 47.76 26.52 48.03 26.52H53.97C54.24 26.52 54.36 26.67 54.36 26.94V50.04C54.36 50.37 54.24 50.52 53.97 50.52H48.09C47.79 50.52 47.64 50.34 47.64 50.04Z" fill="#FF9A00"/>
</g>
<defs>
<clipPath id="clip0_3425_35">
<rect width="72" height="70.2" fill="white" transform="translate(0 0.899902)"/>
</clipPath>
</defs>
</svg>
