<svg width="72" height="72" viewBox="0 0 72 72" fill="none" xmlns="http://www.w3.org/2000/svg">
<g clip-path="url(#clip0_3425_25)">
<path d="M12.75 0.899902H59.25C66.3 0.899902 72 6.5999 72 13.6499V58.3499C72 65.3999 66.3 71.0999 59.25 71.0999H12.75C5.7 71.0999 0 65.3999 0 58.3499V13.6499C0 6.5999 5.7 0.899902 12.75 0.899902Z" fill="#001E36"/>
<path d="M16.2 50.13V19.26C16.2 19.05 16.29 18.93 16.5 18.93C17.01 18.93 17.49 18.93 18.18 18.9C18.9 18.87 19.65 18.87 20.46 18.84C21.27 18.81 22.14 18.81 23.07 18.78C24 18.75 24.9 18.75 25.8 18.75C28.26 18.75 30.3 19.05 31.98 19.68C33.48 20.19 34.86 21.03 36 22.14C36.96 23.1 37.71 24.27 38.19 25.56C38.64 26.82 38.88 28.11 38.88 29.46C38.88 32.04 38.28 34.17 37.08 35.85C35.88 37.53 34.2 38.79 32.25 39.51C30.21 40.26 27.96 40.53 25.5 40.53C24.78 40.53 24.3 40.53 24 40.5C23.7 40.47 23.28 40.47 22.71 40.47V50.1C22.74 50.31 22.59 50.49 22.38 50.52C22.35 50.52 22.32 50.52 22.26 50.52H16.56C16.32 50.52 16.2 50.4 16.2 50.13ZM22.74 24.72V34.8C23.16 34.83 23.55 34.86 23.91 34.86H25.5C26.67 34.86 27.84 34.68 28.95 34.32C29.91 34.05 30.75 33.48 31.41 32.73C32.04 31.98 32.34 30.96 32.34 29.64C32.37 28.71 32.13 27.78 31.65 26.97C31.14 26.19 30.42 25.59 29.55 25.26C28.44 24.81 27.24 24.63 26.01 24.66C25.23 24.66 24.54 24.66 23.97 24.69C23.37 24.66 22.95 24.69 22.74 24.72Z" fill="#31A8FF"/>
<path d="M57.6 32.9699C56.7 32.4899 55.74 32.1599 54.72 31.9499C53.61 31.7099 52.5 31.5599 51.36 31.5599C50.76 31.5299 50.13 31.6199 49.56 31.7699C49.17 31.8599 48.84 32.0699 48.63 32.3699C48.48 32.6099 48.39 32.9099 48.39 33.1799C48.39 33.4499 48.51 33.7199 48.69 33.9599C48.96 34.2899 49.32 34.5599 49.71 34.7699C50.4 35.1299 51.12 35.4599 51.84 35.7599C53.46 36.2999 55.02 37.0499 56.46 37.9499C57.45 38.5799 58.26 39.4199 58.83 40.4399C59.31 41.3999 59.55 42.4499 59.52 43.5299C59.55 44.9399 59.13 46.3499 58.35 47.5199C57.51 48.7199 56.34 49.6499 54.99 50.1899C53.52 50.8199 51.72 51.1499 49.56 51.1499C48.18 51.1499 46.83 51.0299 45.48 50.7599C44.43 50.5799 43.38 50.2499 42.42 49.7999C42.21 49.6799 42.06 49.4699 42.09 49.2299V44.0099C42.09 43.9199 42.12 43.7999 42.21 43.7399C42.3 43.6799 42.39 43.7099 42.48 43.7699C43.65 44.4599 44.88 44.9399 46.2 45.2399C47.34 45.5399 48.54 45.6899 49.74 45.6899C50.88 45.6899 51.69 45.5399 52.23 45.2699C52.71 45.0599 53.04 44.5499 53.04 44.0099C53.04 43.5899 52.8 43.1999 52.32 42.8099C51.84 42.4199 50.85 41.9699 49.38 41.3999C47.85 40.8599 46.44 40.1399 45.12 39.2399C44.19 38.5799 43.41 37.7099 42.84 36.6899C42.36 35.7299 42.12 34.6799 42.15 33.6299C42.15 32.3399 42.51 31.1099 43.17 29.9999C43.92 28.7999 45.03 27.8399 46.32 27.2399C47.73 26.5199 49.5 26.1899 51.63 26.1899C52.86 26.1899 54.12 26.2799 55.35 26.4599C56.25 26.5799 57.12 26.8199 57.93 27.1499C58.05 27.1799 58.17 27.2999 58.23 27.4199C58.26 27.5399 58.29 27.6599 58.29 27.7799V32.6699C58.29 32.7899 58.23 32.9099 58.14 32.9699C57.87 33.0299 57.72 33.0299 57.6 32.9699Z" fill="#31A8FF"/>
</g>
<defs>
<clipPath id="clip0_3425_25">
<rect width="72" height="70.2" fill="white" transform="translate(0 0.899902)"/>
</clipPath>
</defs>
</svg>
