<svg width="73" height="72" viewBox="0 0 73 72" fill="none" xmlns="http://www.w3.org/2000/svg">
<g clip-path="url(#clip0_3425_437)">
<path d="M9.41585 8.522C9.28253 4.68856 12.2688 1.15381 16.3059 1.15381H57.6722C61.7092 1.15381 64.6955 4.68856 64.5622 8.522C64.434 12.2041 64.6005 16.9741 65.8008 20.8632C67.0052 24.7647 69.0358 27.2302 72.3618 27.5474V31.1401C69.0358 31.4568 67.0052 33.9228 65.8008 37.8243C64.6005 41.7134 64.434 46.4834 64.5622 50.1656C64.6955 53.999 61.7092 57.5332 57.6722 57.5332H16.3059C12.2688 57.5332 9.28253 53.9984 9.41585 50.1656C9.5441 46.4834 9.3776 41.7134 8.17666 37.8243C6.97291 33.9234 4.93666 31.4574 1.6106 31.1401V27.5474C4.93666 27.2307 6.97291 24.7647 8.17666 20.8632C9.3776 16.9741 9.54353 12.2041 9.41585 8.522Z" fill="url(#paint0_linear_3425_437)"/>
<g filter="url(#filter0_d_3425_437)">
<path d="M38.7362 44.5356C45.2719 44.5356 49.2099 41.3355 49.2099 36.0576C49.2099 32.0677 46.4002 29.1793 42.2276 28.722V28.5555C45.2932 28.0571 47.6985 25.2103 47.6985 22.0305C47.6985 17.5007 44.1221 14.5498 38.672 14.5498H26.4095V44.5356H38.7362ZM31.1784 18.3529H37.5229C40.971 18.3529 42.9302 19.8902 42.9302 22.6751C42.9302 25.6462 40.652 27.309 36.5222 27.309H31.1784V18.3529ZM31.1784 40.7331V30.8623H37.4801C41.993 30.8623 44.3347 32.5245 44.3347 35.7662C44.3347 39.0079 42.0572 40.7331 37.7569 40.7331H31.1784Z" fill="url(#paint1_linear_3425_437)"/>
<path d="M38.7362 44.5356C45.2719 44.5356 49.2099 41.3355 49.2099 36.0576C49.2099 32.0677 46.4002 29.1793 42.2276 28.722V28.5555C45.2932 28.0571 47.6985 25.2103 47.6985 22.0305C47.6985 17.5007 44.1221 14.5498 38.672 14.5498H26.4095V44.5356H38.7362ZM31.1784 18.3529H37.5229C40.971 18.3529 42.9302 19.8902 42.9302 22.6751C42.9302 25.6462 40.652 27.309 36.5222 27.309H31.1784V18.3529ZM31.1784 40.7331V30.8623H37.4801C41.993 30.8623 44.3347 32.5245 44.3347 35.7662C44.3347 39.0079 42.0572 40.7331 37.7569 40.7331H31.1784Z" fill="white"/>
</g>
<path d="M7.39819 68.3043V58.3267H10.2371C11.0994 58.3267 11.784 58.5376 12.2897 58.96C12.7954 59.3819 13.0479 59.9315 13.0479 60.6087C13.0479 61.1752 12.8949 61.6668 12.5889 62.0842C12.2824 62.5015 11.8605 62.7985 11.3222 62.9746V63.0027C11.9949 63.0815 12.5333 63.3363 12.9366 63.7677C13.3399 64.1947 13.5418 64.751 13.5418 65.4378C13.5418 66.2911 13.2358 66.9824 12.6238 67.5112C12.0113 68.0399 11.2389 68.3043 10.3063 68.3043H7.39819ZM8.56707 59.3842V62.6056H9.76407C10.4042 62.6056 10.9076 62.4526 11.2738 62.1466C11.64 61.8355 11.8234 61.399 11.8234 60.8382C11.8234 59.869 11.1855 59.3842 9.90976 59.3842H8.56707ZM8.56707 63.6563V67.2468H10.1533C10.8396 67.2468 11.3711 67.0842 11.7469 66.7597C12.1271 66.4351 12.3173 65.9896 12.3173 65.4237C12.3173 64.2453 11.5146 63.6563 9.90976 63.6563H8.56707ZM18.3917 68.473C17.3387 68.473 16.4966 68.1412 15.8661 67.478C15.24 66.8103 14.9267 65.9266 14.9267 64.8269C14.9267 63.6305 15.2535 62.6956 15.9077 62.0228C16.5619 61.3507 17.4456 61.0143 18.5588 61.0143C19.6208 61.0143 20.4488 61.3411 21.0428 61.9953C21.6407 62.6495 21.9399 63.5562 21.9399 64.7155C21.9399 65.8523 21.6176 66.7636 20.9724 67.4504C20.3329 68.1322 19.4723 68.473 18.3917 68.473ZM18.4749 61.9745C17.742 61.9745 17.1626 62.2248 16.7357 62.726C16.3088 63.2221 16.0956 63.9083 16.0956 64.7853C16.0956 65.6296 16.311 66.2956 16.7424 66.7822C17.1739 67.2698 17.751 67.5134 18.4749 67.5134C19.2124 67.5134 19.7788 67.2743 20.1731 66.7962C20.5719 66.3187 20.7711 65.6392 20.7711 64.7577C20.7711 63.8673 20.5719 63.1805 20.1731 62.6978C19.7788 62.2158 19.2124 61.9745 18.4749 61.9745ZM26.7414 68.473C25.6884 68.473 24.8464 68.1412 24.2158 67.478C23.5898 66.8103 23.2764 65.9266 23.2764 64.8269C23.2764 63.6305 23.6033 62.6956 24.2574 62.0228C24.9116 61.3507 25.7953 61.0143 26.9085 61.0143C27.9705 61.0143 28.7985 61.3411 29.3925 61.9953C29.991 62.6495 30.2903 63.5562 30.2903 64.7155C30.2903 65.8523 29.9679 66.7636 29.3228 67.4504C28.6826 68.1322 27.8226 68.473 26.7414 68.473ZM26.8247 61.9745C26.0918 61.9745 25.5124 62.2248 25.0854 62.726C24.6585 63.2221 24.4453 63.9083 24.4453 64.7853C24.4453 65.6296 24.6608 66.2956 25.0922 66.7822C25.5236 67.2698 26.1008 67.5134 26.8247 67.5134C27.5621 67.5134 28.1286 67.2743 28.5229 66.7962C28.9217 66.3187 29.1208 65.6392 29.1208 64.7577C29.1208 63.8673 28.9217 63.1805 28.5229 62.6978C28.1286 62.2158 27.5627 61.9745 26.8247 61.9745ZM35.4174 68.2368C35.1486 68.3853 34.7936 68.4595 34.3526 68.4595C33.105 68.4595 32.4812 67.7637 32.4812 66.3721V62.1556H31.2566V61.1813H32.4812V59.4421L33.6225 59.0731V61.1813H35.4169V62.1556H33.6225V66.1702C33.6225 66.6477 33.7035 66.9892 33.8661 67.1933C34.0281 67.3975 34.2969 67.4993 34.6727 67.4993C34.9601 67.4993 35.2088 67.4206 35.4174 67.2631V68.2368ZM36.5098 68.0455V66.821C37.1314 67.28 37.8154 67.5095 38.5624 67.5095C39.5642 67.5095 40.0654 67.1759 40.0654 66.5082C40.0654 66.3175 40.0215 66.1578 39.9332 66.0278C39.8431 65.8866 39.7245 65.7657 39.585 65.6729C39.4249 65.5623 39.2521 65.4713 39.0703 65.4018C38.8607 65.3122 38.6496 65.2263 38.4369 65.1442C38.1527 65.0328 37.8741 64.9074 37.6022 64.7684C37.3843 64.652 37.183 64.5069 37.0037 64.337C36.8489 64.1788 36.7261 63.9922 36.642 63.7874C36.5633 63.5832 36.5239 63.3447 36.5239 63.0708C36.5239 62.7372 36.6004 62.4425 36.7534 62.1871C36.9058 61.9279 37.115 61.7067 37.3654 61.5402C37.6307 61.3592 37.925 61.2249 38.2356 61.1431C38.5669 61.0546 38.9085 61.0102 39.2514 61.0109C39.8685 61.0109 40.4203 61.1178 40.9074 61.3315V62.4863C40.3832 62.1427 39.7802 61.9711 39.0979 61.9711C38.8841 61.9711 38.6923 61.9964 38.5208 62.0476C38.3616 62.0885 38.2108 62.1571 38.0753 62.2501C37.9577 62.3342 37.8603 62.4433 37.7901 62.5696C37.7243 62.6939 37.6909 62.8328 37.6928 62.9735C37.6928 63.1585 37.7254 63.3138 37.7901 63.4392C37.8593 63.5647 37.9588 63.676 38.0893 63.7733C38.2187 63.8707 38.3768 63.959 38.5624 64.0377C38.748 64.1165 38.9589 64.2025 39.1958 64.2953C39.5108 64.4157 39.7937 64.5412 40.0446 64.6711C40.2771 64.7842 40.4926 64.9294 40.6847 65.1025C40.8608 65.26 40.9952 65.4434 41.088 65.6521C41.1853 65.8608 41.2343 66.1088 41.2343 66.3963C41.2343 66.749 41.1555 67.055 40.998 67.3148C40.8444 67.5747 40.638 67.7902 40.3781 67.9617C40.1032 68.1399 39.7998 68.2695 39.4809 68.3448C39.1324 68.4297 38.7748 68.4718 38.4161 68.4702C37.6832 68.4702 37.0481 68.3285 36.5098 68.0455ZM46.2917 68.2368C46.0234 68.3853 45.6684 68.4595 45.2274 68.4595C43.9798 68.4595 43.356 67.7637 43.356 66.3721V62.1556H42.1314V61.1813H43.356V59.4421L44.4973 59.0731V61.1813H46.2917V62.1556H44.4973V66.1702C44.4973 66.6477 44.5783 66.9892 44.7409 67.1933C44.9029 67.3975 45.1718 67.4993 45.5475 67.4993C45.8349 67.4993 46.0836 67.4206 46.2923 67.2631L46.2917 68.2368ZM51.5319 62.3362C51.3323 62.1832 51.0448 62.1067 50.6691 62.1067C50.1819 62.1067 49.7736 62.3362 49.4445 62.7952C49.1199 63.2547 48.9574 63.8808 48.9574 64.6739V68.306H47.8166V61.1813H48.9574V62.6495H48.9855C49.1481 62.1483 49.3961 61.759 49.7297 61.4806C50.0633 61.1977 50.4368 61.0559 50.8502 61.0559C51.1466 61.0559 51.3739 61.0885 51.5319 61.1538V62.3362ZM57.8719 68.3043H56.7306V67.1905H56.7024C56.2069 68.0444 55.4762 68.4713 54.5121 68.4713C53.8022 68.4713 53.2453 68.2835 52.8414 67.9077C52.4426 67.532 52.2435 67.033 52.2435 66.4115C52.2435 65.08 53.0271 64.306 54.5948 64.0883L56.7311 63.7885C56.7311 62.578 56.2418 61.9728 55.263 61.9728C54.4052 61.9728 53.6306 62.2647 52.9393 62.8492V61.6803C53.6396 61.2353 54.4468 61.0126 55.3609 61.0126C57.0354 61.0126 57.8724 61.8985 57.8724 63.6704L57.8719 68.3043ZM56.73 64.7003L55.0121 64.9366C54.4834 65.0108 54.084 65.143 53.8151 65.3332C53.5463 65.5188 53.4118 65.8507 53.4118 66.3282C53.4118 66.6764 53.535 66.9616 53.7808 67.1843C54.0311 67.402 54.363 67.5106 54.7759 67.5106C55.3418 67.5106 55.8081 67.3137 56.1743 66.92C56.5455 66.5212 56.7311 66.0177 56.7311 65.4097L56.73 64.7003ZM61.1906 67.2749H61.1625V71.582H60.0218V61.1797H61.1631V62.4318H61.1906C61.752 61.4857 62.5733 61.0126 63.6538 61.0126C64.5724 61.0126 65.289 61.3327 65.8037 61.9728C66.3184 62.6078 66.576 63.4617 66.576 64.5333C66.576 65.7252 66.2863 66.6809 65.7064 67.3998C65.1264 68.1142 64.3333 68.4713 63.327 68.4713C62.4039 68.4713 61.6918 68.0731 61.1906 67.2749ZM61.1625 64.4011V65.3967C61.1625 65.9857 61.3526 66.4863 61.7334 66.8992C62.1188 67.3075 62.6053 67.5117 63.1943 67.5117C63.8856 67.5117 64.4261 67.2473 64.8159 66.7186C65.2097 66.1898 65.4066 65.4547 65.4066 64.5125C65.4066 63.7193 65.2238 63.0978 64.8576 62.6478C64.4914 62.1978 63.9947 61.9728 63.3686 61.9728C62.7049 61.9728 62.1716 62.2045 61.7683 62.6686C61.3644 63.1282 61.1625 63.7053 61.1625 64.4011Z" fill="#7952B3"/>
</g>
<defs>
<filter id="filter0_d_3425_437" x="22.4795" y="11.6028" width="30.6604" height="37.8458" filterUnits="userSpaceOnUse" color-interpolation-filters="sRGB">
<feFlood flood-opacity="0" result="BackgroundImageFix"/>
<feColorMatrix in="SourceAlpha" type="matrix" values="0 0 0 0 0 0 0 0 0 0 0 0 0 0 0 0 0 0 127 0" result="hardAlpha"/>
<feOffset dy="0.983"/>
<feGaussianBlur stdDeviation="1.965"/>
<feColorMatrix type="matrix" values="0 0 0 0 0 0 0 0 0 0 0 0 0 0 0 0 0 0 0.15 0"/>
<feBlend mode="normal" in2="BackgroundImageFix" result="effect1_dropShadow_3425_437"/>
<feBlend mode="normal" in="SourceGraphic" in2="effect1_dropShadow_3425_437" result="shape"/>
</filter>
<linearGradient id="paint0_linear_3425_437" x1="12.1243" y1="2.64612" x2="73.9475" y2="51.722" gradientUnits="userSpaceOnUse">
<stop stop-color="#9013FE"/>
<stop offset="1" stop-color="#6610F2"/>
</linearGradient>
<linearGradient id="paint1_linear_3425_437" x1="28.5673" y1="16.5231" x2="42.3857" y2="39.8938" gradientUnits="userSpaceOnUse">
<stop stop-color="white"/>
<stop offset="1" stop-color="#F1E5FC"/>
</linearGradient>
<clipPath id="clip0_3425_437">
<rect width="72" height="72" fill="white" transform="translate(0.986816)"/>
</clipPath>
</defs>
</svg>
