<svg width="45" height="45" viewBox="0 0 45 45" fill="none" xmlns="http://www.w3.org/2000/svg">
<g clip-path="url(#clip0_932_3195)">
<path d="M6.42857 0C2.88281 0 0 2.88281 0 6.42857V38.5714C0 42.1172 2.88281 45 6.42857 45H38.5714C42.1172 45 45 42.1172 45 38.5714V6.42857C45 2.88281 42.1172 0 38.5714 0H6.42857ZM21.8973 24.077L6.44866 14.1027C6.62946 12.4955 7.98549 11.25 9.64286 11.25H35.3571C37.0145 11.25 38.3705 12.4955 38.5513 14.1027L23.1027 24.077C22.9219 24.1975 22.7109 24.2578 22.5 24.2578C22.2891 24.2578 22.0781 24.1975 21.8973 24.077ZM24.8504 26.779L38.5714 17.9196V30.5357C38.5714 32.3136 37.135 33.75 35.3571 33.75H9.64286C7.86495 33.75 6.42857 32.3136 6.42857 30.5357V17.9196L20.1496 26.779C20.8527 27.231 21.6663 27.4721 22.5 27.4721C23.3337 27.4721 24.1473 27.231 24.8504 26.779Z" fill="black"/>
</g>
<defs>
<clipPath id="clip0_932_3195">
<rect width="45" height="45" rx="2" fill="white"/>
</clipPath>
</defs>
</svg>
