<svg width="30" height="31" viewBox="0 0 30 31" fill="none" xmlns="http://www.w3.org/2000/svg">
<g clip-path="url(#clip0_289_425)">
<path d="M4.28571 0.5C1.92188 0.5 0 2.42188 0 4.78571V26.2143C0 28.5781 1.92188 30.5 4.28571 30.5H25.7143C28.0781 30.5 30 28.5781 30 26.2143V4.78571C30 2.42188 28.0781 0.5 25.7143 0.5H4.28571ZM14.5982 16.5513L4.29911 9.90178C4.41964 8.83036 5.32366 8 6.42857 8H23.5714C24.6763 8 25.5804 8.83036 25.7009 9.90178L15.4018 16.5513C15.2812 16.6317 15.1406 16.6719 15 16.6719C14.8594 16.6719 14.7188 16.6317 14.5982 16.5513ZM16.567 18.3527L25.7143 12.4464V20.8571C25.7143 22.0424 24.7567 23 23.5714 23H6.42857C5.2433 23 4.28571 22.0424 4.28571 20.8571V12.4464L13.433 18.3527C13.9018 18.654 14.4442 18.8147 15 18.8147C15.5558 18.8147 16.0982 18.654 16.567 18.3527Z" fill="black"/>
</g>
<defs>
<clipPath id="clip0_289_425">
<rect y="0.5" width="30" height="30" rx="2" fill="white"/>
</clipPath>
</defs>
</svg>
