<svg width="144" height="40" viewBox="0 0 144 40" fill="none" xmlns="http://www.w3.org/2000/svg">
<g clip-path="url(#clip0_3425_241)">
<path d="M34.8082 0.189941V30.7708L38.7358 30.7858V16.2299H48.2248V12.3773H38.7358V4.04253H51.0881V0.189941H34.8082ZM58.1786 6.39606C59.6027 6.39606 60.742 5.24178 60.742 3.83266C60.742 2.42355 59.5877 1.26927 58.1786 1.26927C56.7545 1.26927 55.6152 2.42355 55.6152 3.83266C55.6152 5.24178 56.7695 6.39606 58.1786 6.39606ZM56.1849 10.2487V30.7708H60.1124V10.2487H56.1849Z" fill="black"/>
<path fill-rule="evenodd" clip-rule="evenodd" d="M74.6983 9.64893C69.4666 9.64893 65.8239 14.0712 65.8239 19.3179C65.8239 24.5646 69.4666 28.9868 74.6983 28.9868C77.0968 28.9868 79.0606 28.0574 80.4997 26.5584V29.2717C80.4997 32.6745 77.8313 35.5078 74.3385 35.5078C73.0793 35.5078 71.8351 35.0281 70.8457 34.3385L68.8669 37.7564C70.441 38.7757 72.3148 39.3603 74.3235 39.3603C79.9001 39.3603 84.4122 34.8482 84.4122 29.2717V10.2486H80.4997V12.0774C79.0606 10.5783 77.0968 9.64893 74.6983 9.64893ZM69.7664 19.3179C69.7664 16.0649 72.2548 13.5015 75.133 13.5015C78.0112 13.5015 80.4997 16.0649 80.4997 19.3179C80.4997 22.5708 78.0112 25.1342 75.133 25.1342C72.2548 25.1342 69.7664 22.5708 69.7664 19.3179Z" fill="black"/>
<path d="M98.6084 13.5015C96.2848 13.5015 94.396 15.4803 94.396 17.8038V30.7707H90.4684V10.2486H94.396V12.1224C95.5503 10.6383 97.2442 9.64893 99.4628 9.64893C102.221 9.64893 104.335 11.0131 105.564 13.1118C106.928 11.088 109.147 9.64893 111.83 9.64893C116.312 9.64893 119.101 13.2617 119.116 17.7289V30.7707H115.188V17.7888C115.188 15.4653 113.299 13.4865 110.976 13.4865C108.652 13.4865 106.763 15.4653 106.763 17.7888V30.7707H102.836V17.7888C102.821 15.4653 100.932 13.5015 98.6084 13.5015Z" fill="black"/>
<path fill-rule="evenodd" clip-rule="evenodd" d="M140.072 12.5721C138.319 10.7582 135.92 9.64893 133.147 9.64893C127.3 9.64893 123.133 14.6108 123.133 20.5171C123.133 26.4234 127.285 31.3853 133.147 31.3853C135.92 31.3853 138.319 30.261 140.072 28.4622V30.7707H144V10.2486H140.072V12.5721ZM127.076 20.5171C127.076 16.6046 130.074 13.5015 133.582 13.5015C137.074 13.5015 140.087 16.5896 140.087 20.5171C140.087 24.4297 137.089 27.5327 133.582 27.5327C130.074 27.5178 127.076 24.4297 127.076 20.5171Z" fill="black"/>
<path d="M13.2067 20.0074C13.2067 16.3646 16.1599 13.3965 19.8176 13.3965C23.4603 13.3965 26.4285 16.3496 26.4285 20.0074C26.4285 23.6501 23.4753 26.6182 19.8176 26.6182C16.1749 26.6182 13.2067 23.6501 13.2067 20.0074Z" fill="#1ABCFE"/>
<path d="M0 33.2144C0 29.5717 2.95315 26.6035 6.61087 26.6035H13.2217V33.2144C13.2217 36.8571 10.2686 39.8253 6.61087 39.8253C2.95315 39.8253 0 36.8721 0 33.2144Z" fill="#0ACF83"/>
<path d="M13.2067 0.189795V13.3965H19.8176C23.4603 13.3965 26.4285 10.4434 26.4285 6.78567C26.4285 3.14295 23.4753 0.174805 19.8176 0.174805H13.2067V0.189795Z" fill="#FF7262"/>
<path d="M0 6.80081C0 10.4435 2.95315 13.4117 6.61087 13.4117H13.2217V0.189941H6.61087C2.95315 0.189941 0 3.1431 0 6.80081Z" fill="#F24E1E"/>
<path d="M0 20.0074C0 23.6501 2.95315 26.6182 6.61087 26.6182H13.2217V13.3965H6.61087C2.95315 13.3965 0 16.3646 0 20.0074Z" fill="#A259FF"/>
</g>
<defs>
<clipPath id="clip0_3425_241">
<rect width="144" height="39.6864" fill="white" transform="translate(0 0.156738)"/>
</clipPath>
</defs>
</svg>
