<svg width="72" height="32" viewBox="0 0 72 32" fill="none" xmlns="http://www.w3.org/2000/svg">
<g clip-path="url(#clip0_3425_758)">
<path d="M43.151 11.1996C41.5723 11.1996 40.3967 11.9748 40.3967 13.8405C40.3967 15.2462 41.1715 16.222 43.0661 16.222C44.6718 16.222 45.7624 15.2758 45.7624 13.7824C45.7624 12.0901 44.7864 11.1996 43.151 11.1996ZM39.9936 24.3725C39.6201 24.831 39.2478 25.3181 39.2478 25.8931C39.2478 27.04 40.7104 27.3852 42.7196 27.3852C44.384 27.3852 46.6512 27.2686 46.6512 25.7212C46.6512 24.8014 45.5604 24.7445 44.1822 24.658L39.9936 24.3725ZM48.4874 11.2864C49.0031 11.9466 49.5491 12.865 49.5491 14.185C49.5491 17.3701 47.0525 19.2352 43.4377 19.2352C42.5185 19.2352 41.6863 19.1207 41.1703 18.9775L40.223 20.4981L43.0348 20.6699C47.9996 20.9862 50.9257 21.13 50.9257 24.9451C50.9257 28.246 48.0281 30.1101 43.0348 30.1101C37.8411 30.1101 35.8612 28.79 35.8612 26.5233C35.8612 25.2315 36.4352 24.5443 37.4396 23.5959C36.4923 23.1955 36.1771 22.4785 36.1771 21.7034C36.1771 21.0717 36.4923 20.4979 37.0096 19.9523C37.526 19.4076 38.0997 18.8617 38.7885 18.2305C37.3826 17.542 36.3205 16.0498 36.3205 13.926C36.3205 10.6264 38.5016 8.36035 42.8912 8.36035C44.1253 8.36035 44.8718 8.47394 45.5318 8.64718H51.1278V11.0857L48.4874 11.2864Z" fill="#413000"/>
<path d="M56.1787 6.07185C54.5427 6.07185 53.5961 5.12406 53.5961 3.48781C53.5961 1.85362 54.5427 0.963379 56.1787 0.963379C57.8432 0.963379 58.7901 1.85362 58.7901 3.48781C58.7901 5.12403 57.8432 6.07185 56.1787 6.07185ZM52.4764 23.3164V21.0506L53.9404 20.8503C54.3423 20.7921 54.3993 20.7067 54.3993 20.2752V11.8389C54.3993 11.5239 54.3136 11.3222 54.0258 11.2368L52.4764 10.6911L52.7919 8.36761H58.7324V20.2755C58.7324 20.7354 58.7601 20.7923 59.1917 20.8505L60.6553 21.0508V23.3166H52.4762" fill="#413000"/>
<path d="M72.0026 22.2039C70.7681 22.8058 68.9607 23.3511 67.3243 23.3511C63.9097 23.3511 62.6188 21.975 62.6188 18.7311V11.2135C62.6188 11.0417 62.6188 10.9264 62.3883 10.9264H60.38V8.37265C62.906 8.08492 63.9096 6.82207 64.2253 3.69434H66.9517V7.77045C66.9517 7.97059 66.9517 8.05728 67.1815 8.05728H71.2273V10.9264H66.9518V17.7842C66.9518 19.4775 67.354 20.137 68.9027 20.137C69.7072 20.137 70.5384 19.9367 71.2272 19.6782L72.0026 22.2039Z" fill="#413000"/>
<path d="M29.4847 14.6734L16.3632 1.55356C15.6083 0.797901 14.3828 0.797901 13.6268 1.55356L10.9023 4.27836L14.3583 7.73434C15.1617 7.46307 16.0826 7.64495 16.7227 8.2852C17.3662 8.92945 17.5468 9.8582 17.2687 10.6643L20.5997 13.9953C21.4055 13.7176 22.3353 13.897 22.9788 14.5416C23.8784 15.441 23.8784 16.8983 22.9788 17.7979C22.079 18.6978 20.6217 18.6978 19.7214 17.7979C19.045 17.1209 18.8777 16.127 19.2203 15.2936L16.1138 12.1871L16.1135 20.3617C16.3329 20.4703 16.5398 20.6152 16.7226 20.7972C17.622 21.6965 17.622 23.1535 16.7226 24.0543C15.823 24.9535 14.365 24.9535 13.4663 24.0543C12.5668 23.1536 12.5668 21.6965 13.4663 20.7972C13.6886 20.5753 13.9458 20.4073 14.2203 20.2948V12.0442C13.9457 11.9321 13.6888 11.7653 13.4662 11.5417C12.7848 10.8609 12.6207 9.86089 12.9701 9.02422L9.56323 5.61678L0.566925 14.6128C-0.188975 15.3691 -0.188975 16.5946 0.566925 17.3503L13.6876 30.4702C14.443 31.2258 15.6681 31.2258 16.4245 30.4702L29.4846 17.4123C30.2402 16.6562 30.2402 15.4304 29.4846 14.6745" fill="#F05133"/>
</g>
<defs>
<clipPath id="clip0_3425_758">
<rect width="72" height="30.073" fill="white" transform="translate(0 0.963379)"/>
</clipPath>
</defs>
</svg>
