<svg width="30" height="31" viewBox="0 0 30 31" fill="none" xmlns="http://www.w3.org/2000/svg">
<path d="M30 2.77679C30 1.51786 28.9821 0.5 27.7232 0.5H2.27679C1.01786 0.5 0 1.51786 0 2.77679V28.2232C0 29.4821 1.01786 30.5 2.27679 30.5H27.7232C28.9821 30.5 30 29.4821 30 28.2232V2.77679ZM17.7991 25.6585C17.7991 25.5379 17.7991 25.2567 17.8058 24.8817C17.8125 24.1183 17.8125 22.9531 17.8125 21.9554C17.8125 20.9576 17.4643 20.2478 17.0558 19.8996C19.5335 19.625 22.1451 19.2835 22.1451 15.0045C22.1451 10.7254 21.7098 13.1763 21 12.3929C21.1138 12.1049 21.4955 10.9196 20.8862 9.37947C19.9554 9.09152 17.8259 10.5781 17.8259 10.5781C16.942 10.3304 15.9844 10.2031 15.0402 10.2031C14.096 10.2031 13.1384 10.3304 12.2545 10.5781C12.2545 10.5781 10.125 9.09152 9.1942 9.37947C8.58482 10.9129 8.95982 12.0982 9.08036 12.3929C8.37054 13.1763 8.03572 13.7857 8.03572 15.0045C8.03572 19.2634 10.5335 19.625 13.0112 19.8996C12.6897 20.1875 12.4018 20.683 12.3013 21.3929C11.6652 21.6808 10.0379 22.1763 9.06696 20.4621C8.45759 19.404 7.35938 19.317 7.35938 19.317C6.27455 19.3036 7.28571 20 7.28571 20C8.00893 20.3348 8.51786 21.6205 8.51786 21.6205C9.16741 23.6094 12.2746 22.9397 12.2746 22.9397C12.2746 23.5424 12.2812 24.3929 12.2812 24.9888C12.2812 25.5848 12.2879 25.5647 12.2879 25.6585C12.2879 25.9464 12.0871 26.2946 11.5179 26.1942C7.09821 24.7143 4.00446 20.5089 4.00446 15.5938C4.00446 10.6786 8.70536 4.77902 14.8527 4.77902C21 4.77902 25.9821 9.44643 25.9821 15.5938C25.9888 20.5089 22.9888 24.721 18.5692 26.1942C18.0067 26.2946 17.7991 25.9464 17.7991 25.6585ZM11.7388 21.9888C11.7254 21.8884 11.8125 21.8013 11.9397 21.7746C12.067 21.7612 12.1875 21.8147 12.2009 21.9018C12.221 21.9888 12.1339 22.0759 12 22.1027C11.8728 22.1295 11.7522 22.0759 11.7388 21.9888ZM11.1295 22.2031C10.9821 22.2165 10.8817 22.1429 10.8817 22.0424C10.8817 21.942 10.9821 21.8817 11.1161 21.8817C11.2433 21.8683 11.3638 21.942 11.3638 22.0424C11.3638 22.1429 11.2634 22.2031 11.1295 22.2031ZM10.1719 22.0558C10.0446 22.029 9.95759 21.9286 9.98438 21.8415C10.0112 21.7545 10.1451 21.7143 10.2589 21.7411C10.3929 21.7813 10.4799 21.8817 10.4464 21.9688C10.4196 22.0558 10.2857 22.096 10.1719 22.0558ZM9.33482 21.567C9.23438 21.4799 9.20759 21.3527 9.27455 21.2924C9.33482 21.2188 9.46205 21.2321 9.5625 21.3326C9.64955 21.4196 9.68304 21.5536 9.62277 21.6071C9.5625 21.6808 9.43527 21.6674 9.33482 21.567ZM8.76562 20.8973C8.69196 20.7969 8.69196 20.683 8.76562 20.6362C8.83928 20.5759 8.95313 20.6228 9.01339 20.7232C9.08705 20.8237 9.08705 20.9442 9.01339 20.9978C8.95313 21.0379 8.83928 20.9978 8.76562 20.8973ZM8.34375 20.308C8.27009 20.221 8.2567 20.1205 8.31696 20.0737C8.37723 20.0134 8.47768 20.0469 8.55134 20.1138C8.625 20.2009 8.63839 20.3013 8.57813 20.3482C8.51786 20.4085 8.41741 20.375 8.34375 20.308ZM7.94196 19.8795C7.85491 19.8393 7.81473 19.7656 7.84152 19.7054C7.8683 19.6652 7.94196 19.6451 8.02902 19.6786C8.11607 19.7254 8.15625 19.7991 8.12947 19.8527C8.10268 19.9129 8.01562 19.9263 7.94196 19.8795Z" fill="#030000"/>
</svg>
