<svg width="45" height="45" viewBox="0 0 45 45" fill="none" xmlns="http://www.w3.org/2000/svg">
<path d="M45 3.41518C45 1.52679 43.4732 0 41.5848 0H3.41518C1.52679 0 0 1.52679 0 3.41518V41.5848C0 43.4732 1.52679 45 3.41518 45H41.5848C43.4732 45 45 43.4732 45 41.5848V3.41518ZM26.6987 37.7377C26.6987 37.5569 26.6987 37.135 26.7087 36.5725C26.7188 35.4275 26.7188 33.6797 26.7188 32.183C26.7188 30.6864 26.1964 29.6217 25.5837 29.0993C29.3002 28.6875 33.2176 28.1752 33.2176 21.7567C33.2176 15.3382 32.5647 19.0145 31.5 17.8393C31.6708 17.4074 32.2433 15.6295 31.3292 13.3192C29.933 12.8873 26.7388 15.1172 26.7388 15.1172C25.4129 14.7455 23.9766 14.5547 22.5603 14.5547C21.144 14.5547 19.7076 14.7455 18.3817 15.1172C18.3817 15.1172 15.1875 12.8873 13.7913 13.3192C12.8772 15.6194 13.4397 17.3973 13.6205 17.8393C12.5558 19.0145 12.0536 19.9286 12.0536 21.7567C12.0536 28.1451 15.8002 28.6875 19.5167 29.0993C19.0346 29.5313 18.6027 30.2746 18.452 31.3393C17.4978 31.7712 15.0569 32.5145 13.6004 29.9431C12.6864 28.356 11.0391 28.2254 11.0391 28.2254C9.41183 28.2054 10.9286 29.25 10.9286 29.25C12.0134 29.7522 12.7768 31.6808 12.7768 31.6808C13.7511 34.6641 18.4118 33.6596 18.4118 33.6596C18.4118 34.5636 18.4219 35.8393 18.4219 36.7333C18.4219 37.6272 18.4319 37.5971 18.4319 37.7377C18.4319 38.1696 18.1306 38.692 17.2768 38.5413C10.6473 36.3214 6.0067 30.0134 6.0067 22.6406C6.0067 15.2679 13.058 6.41853 22.279 6.41853C31.5 6.41853 38.9732 13.4196 38.9732 22.6406C38.9833 30.0134 34.4833 36.3315 27.8538 38.5413C27.01 38.692 26.6987 38.1696 26.6987 37.7377ZM17.6083 32.2333C17.5882 32.0826 17.7188 31.952 17.9096 31.9118C18.1004 31.8917 18.2812 31.9721 18.3013 32.1027C18.3315 32.2333 18.2009 32.3638 18 32.404C17.8092 32.4442 17.6283 32.3638 17.6083 32.2333ZM16.6942 32.5547C16.4732 32.5748 16.3225 32.4643 16.3225 32.3136C16.3225 32.1629 16.4732 32.0725 16.6741 32.0725C16.865 32.0525 17.0458 32.1629 17.0458 32.3136C17.0458 32.4643 16.8951 32.5547 16.6942 32.5547ZM15.2578 32.3337C15.067 32.2935 14.9364 32.1429 14.9766 32.0123C15.0167 31.8817 15.2176 31.8214 15.3884 31.8616C15.5893 31.9219 15.7199 32.0725 15.6696 32.2031C15.6295 32.3337 15.4286 32.394 15.2578 32.3337ZM14.0022 31.6004C13.8516 31.4699 13.8114 31.279 13.9118 31.1886C14.0022 31.0781 14.1931 31.0982 14.3438 31.2489C14.4743 31.3795 14.5246 31.5804 14.4342 31.6607C14.3438 31.7712 14.1529 31.7511 14.0022 31.6004ZM13.1484 30.596C13.0379 30.4453 13.0379 30.2746 13.1484 30.2042C13.2589 30.1138 13.4297 30.1842 13.5201 30.3348C13.6306 30.4855 13.6306 30.6663 13.5201 30.7467C13.4297 30.8069 13.2589 30.7467 13.1484 30.596ZM12.5156 29.7121C12.4051 29.5815 12.385 29.4308 12.4754 29.3605C12.5658 29.2701 12.7165 29.3203 12.827 29.4208C12.9375 29.5513 12.9576 29.702 12.8672 29.7723C12.7768 29.8627 12.6261 29.8125 12.5156 29.7121ZM11.9129 29.0692C11.7824 29.0089 11.7221 28.8984 11.7623 28.808C11.8025 28.7478 11.9129 28.7176 12.0435 28.7679C12.1741 28.8382 12.2344 28.9487 12.1942 29.029C12.154 29.1194 12.0234 29.1395 11.9129 29.0692Z" fill="#030000"/>
</svg>
