<svg width="100" height="44" viewBox="0 0 100 44" fill="none" xmlns="http://www.w3.org/2000/svg">
<g clip-path="url(#clip0_3425_476)">
<path fill-rule="evenodd" clip-rule="evenodd" d="M34.2361 9.57247L20.9782 1.70256C19.3958 0.763209 17.4453 0.763209 15.8629 1.70256L2.60504 9.57247C1.0231 10.5118 0.0480957 12.2475 0.0480957 14.1262V29.866C0.0480957 31.7442 1.0231 33.4808 2.6055 34.4202L15.8634 42.2887C16.6546 42.7586 17.537 42.9928 18.4208 42.9928C19.3041 42.9928 20.1865 42.7586 20.9777 42.2887L34.2356 34.4202C35.818 33.4808 36.7935 31.7442 36.7935 29.866V14.1262C36.7935 12.2475 35.818 10.5118 34.2361 9.57247Z" fill="#FEFEFE"/>
<path fill-rule="evenodd" clip-rule="evenodd" d="M16.3267 41.4833L3.06881 33.6147C1.77205 32.8448 0.966492 31.4087 0.966492 29.8661V14.1268C0.966492 12.5842 1.77205 11.1481 3.06834 10.3786L16.3267 2.50872C16.9623 2.13141 17.6864 1.93187 18.4207 1.93187C19.1545 1.93187 19.8785 2.13141 20.5146 2.50872L33.7725 10.3786C34.8651 11.0272 35.6021 12.1504 35.8095 13.4101C35.3697 12.4717 34.3781 12.2166 33.2225 12.8916L20.6799 20.6388C19.116 21.5532 17.9628 22.5791 17.9619 24.4647V39.9198C17.9609 41.049 18.417 41.7805 19.1174 41.9925C18.8873 42.0323 18.6554 42.0601 18.4207 42.0601C17.6864 42.0601 16.9623 41.8606 16.3267 41.4833ZM34.2359 9.57261L20.9781 1.70316C20.1869 1.23326 19.3035 0.998535 18.4207 0.998535C17.5373 0.998535 16.654 1.23326 15.8628 1.70316L2.60492 9.57261C1.02297 10.512 0.0479736 12.2481 0.0479736 14.1268V29.8661C0.0479736 31.7444 1.02297 33.4809 2.60538 34.4203L15.8632 42.2893C16.6549 42.7587 17.5373 42.9934 18.4207 42.9934C19.304 42.9934 20.1864 42.7587 20.9776 42.2893L34.2359 34.4203C35.8183 33.4809 36.7933 31.7444 36.7933 29.8661V14.1268C36.7933 12.2481 35.8183 10.512 34.2359 9.57261Z" fill="#3E474A"/>
<path fill-rule="evenodd" clip-rule="evenodd" d="M30.7606 31.3874L27.4592 33.3633C27.3717 33.4143 27.3073 33.4717 27.3069 33.5768V34.4407C27.3069 34.5462 27.3777 34.5902 27.4652 34.5388L30.8175 32.5013C30.905 32.4504 30.9185 32.3527 30.9189 32.2476V31.4856C30.9189 31.3805 30.8481 31.3365 30.7606 31.3874Z" fill="#47B353"/>
<path fill-rule="evenodd" clip-rule="evenodd" d="M23.7305 24.116C23.8375 24.0618 23.9255 24.1285 23.9268 24.2683L23.938 25.4104C24.4162 25.2201 24.8315 25.1692 25.2079 25.2562C25.2893 25.278 25.3255 25.3891 25.2921 25.521L25.0407 26.5331C25.0213 26.6095 24.9782 26.6868 24.9264 26.7349C24.9046 26.7562 24.8824 26.7729 24.8602 26.784C24.8264 26.8011 24.793 26.8067 24.7611 26.8002C24.5893 26.7613 24.181 26.672 23.5384 26.9974C22.8643 27.3386 22.6287 27.9243 22.6333 28.359C22.6389 28.878 22.9051 29.0354 23.8245 29.0511C25.0495 29.0715 25.5787 29.6067 25.5917 30.8405C25.6042 32.0521 24.9574 33.353 23.968 34.1502L23.9898 35.2808C23.9912 35.4169 23.9028 35.5729 23.7958 35.6271L23.1264 36.0127C23.019 36.0669 22.931 36.0002 22.9296 35.8641L22.918 34.7521C22.3444 34.9905 21.7634 35.0479 21.3921 34.8988C21.3222 34.8715 21.2921 34.7683 21.3199 34.6507L21.5625 33.6285C21.5819 33.5479 21.6245 33.4673 21.6824 33.416C21.7028 33.396 21.7241 33.3808 21.7454 33.3701C21.7838 33.3507 21.8213 33.3465 21.8532 33.3585C22.2532 33.4933 22.7648 33.4303 23.2569 33.1812C23.8819 32.865 24.3 32.2275 24.2935 31.5942C24.2875 31.0197 23.9764 30.7808 23.2199 30.7752C22.2569 30.778 21.3592 30.5882 21.3444 29.1706C21.3324 28.0035 21.9393 26.7891 22.9 26.021L22.888 24.8798C22.8866 24.7396 22.9722 24.5854 23.0824 24.5298L23.7305 24.116Z" fill="#FEFEFE"/>
<path fill-rule="evenodd" clip-rule="evenodd" d="M45.6638 23.1785H48.5855C48.998 23.1915 49.3841 23.2581 49.7337 23.3757C50.0666 23.4868 50.3591 23.6475 50.6041 23.8526C50.8434 24.0535 51.0272 24.2933 51.1642 24.5836C51.2985 24.8702 51.3638 25.21 51.3568 25.6058C51.3568 25.9794 51.2832 26.3123 51.1374 26.5956C50.9869 26.8882 50.7892 27.128 50.5351 27.328C50.2698 27.5359 49.9582 27.7012 49.6096 27.8192C49.2541 27.9391 48.8721 28.004 48.486 28.01H45.6638V23.1785ZM50.6828 18.8734C50.5304 19.1322 50.3369 19.3442 50.0911 19.5211C49.836 19.704 49.5388 19.847 49.2059 19.9447C48.8605 20.047 48.5027 20.1021 48.155 20.1086H45.6638V15.9882H48.0809C48.4693 15.9952 48.8531 16.0433 49.2226 16.1322C49.5624 16.2132 49.8642 16.3405 50.1189 16.5091C50.3573 16.6669 50.5425 16.8646 50.6855 17.1128C50.8221 17.3507 50.8916 17.6558 50.8916 18.0192C50.8916 18.3544 50.823 18.6336 50.6828 18.8734ZM53.9397 22.6067C53.6092 22.2077 53.2105 21.8623 52.755 21.5804C52.699 21.5461 52.6425 21.5128 52.5851 21.4799C52.9485 21.2373 53.2716 20.9516 53.5471 20.6299C53.8416 20.2859 54.0754 19.8938 54.2434 19.4655C54.4124 19.0345 54.5027 18.5554 54.5124 18.0368C54.5217 17.1378 54.3332 16.3466 53.9517 15.6845C53.5767 15.0336 53.067 14.491 52.4374 14.0702C51.8267 13.6632 51.1235 13.3591 50.3467 13.1655C49.5943 12.9785 48.8142 12.8794 48.0203 12.8711H42.7133C42.3429 12.8711 42.0425 13.1567 42.0425 13.5091V30.4771C42.0425 30.8294 42.3429 31.1151 42.7133 31.1151H48.4318C49.255 31.1067 50.0656 30.9827 50.8411 30.747C51.6286 30.5072 52.336 30.1563 52.9439 29.703C53.5661 29.2396 54.0689 28.6567 54.4383 27.9711C54.8138 27.2757 54.9994 26.4697 54.9902 25.5822C54.9902 25.0081 54.8971 24.4632 54.7142 23.9628C54.5314 23.4628 54.2707 23.0067 53.9397 22.6067Z" fill="#3E474A"/>
<path fill-rule="evenodd" clip-rule="evenodd" d="M64.8128 23.5697H61.8832L63.3596 19.0202L64.8128 23.5697ZM64.9596 13.3155C64.8712 13.0507 64.6128 12.8711 64.3202 12.8711H62.4207C62.1295 12.8711 61.8721 13.0493 61.7827 13.3128L56.0221 30.2813C55.9563 30.4753 55.992 30.6873 56.1184 30.8526C56.2448 31.0174 56.4462 31.1146 56.6605 31.1146H58.9281C59.2216 31.1146 59.4813 30.9327 59.5684 30.666L60.8559 26.7206H65.8212L67.086 30.6632C67.1721 30.9317 67.4327 31.1146 67.7276 31.1146H69.9827C70.1966 31.1146 70.3976 31.0179 70.5239 30.8535C70.6503 30.6896 70.6864 30.478 70.6216 30.2841L64.9596 13.3155Z" fill="#3E474A"/>
<path fill-rule="evenodd" clip-rule="evenodd" d="M84.2479 23.2624C83.9447 22.8735 83.5868 22.5221 83.1827 22.2165C82.7942 21.9221 82.3706 21.6554 81.9239 21.4221C81.4855 21.1934 81.022 20.9878 80.5461 20.81C80.0887 20.6406 79.6253 20.485 79.1623 20.3462C78.7697 20.2318 78.3493 20.0975 77.9128 19.9475C77.5077 19.8091 77.1271 19.6337 76.7813 19.4258C76.4683 19.2378 76.2081 19.0068 76.0072 18.7387C75.8331 18.5063 75.7452 18.2179 75.7396 17.8674C75.7396 17.5198 75.8077 17.2295 75.9484 16.9786C76.0956 16.717 76.2873 16.5026 76.5345 16.3244C76.7905 16.1392 77.0896 15.9975 77.423 15.9036C78.2026 15.6827 79.0771 15.7156 79.7091 15.9503C80.0512 16.0772 80.3493 16.2568 80.5938 16.4827C80.8419 16.7124 81.0447 16.9934 81.197 17.3175C81.3572 17.6587 81.4674 18.0475 81.5243 18.4725C81.5665 18.7906 81.8516 19.0295 82.1896 19.0295H84.5179C84.6984 19.0295 84.8711 18.961 84.997 18.8383C85.1234 18.7161 85.1924 18.5503 85.1887 18.379C85.1702 17.5096 84.9688 16.7068 84.5896 15.9938C84.2146 15.2906 83.7086 14.6823 83.0864 14.1855C82.4725 13.6962 81.76 13.3119 80.9688 13.042C79.4674 12.5313 77.7989 12.504 76.2049 12.9758C75.4382 13.2031 74.7419 13.5415 74.1355 13.9804C73.5169 14.4276 73.0095 14.9841 72.6271 15.6327C72.2327 16.3012 72.0327 17.0647 72.0327 17.9026C72.0327 18.7462 72.2359 19.4971 72.6364 20.135C73.0165 20.7401 73.5128 21.2721 74.1114 21.7151C74.6878 22.1425 75.3336 22.5068 76.0304 22.7985C76.6993 23.0786 77.366 23.3212 78.0132 23.5207C78.4382 23.6508 78.8813 23.7952 79.3424 23.9554C79.7614 24.1012 80.1503 24.285 80.4975 24.5017C80.816 24.7003 81.0688 24.9369 81.2688 25.2239C81.4452 25.4776 81.5308 25.7929 81.5308 26.1887C81.5308 26.5406 81.4577 26.8281 81.3072 27.0675C81.1429 27.329 80.9373 27.5392 80.6794 27.71C80.4109 27.8869 80.0984 28.0202 79.7484 28.1054C78.9095 28.311 77.997 28.2786 77.2776 28.0577C76.8919 27.9397 76.5484 27.7633 76.2567 27.5332C75.966 27.304 75.7243 27.0188 75.5378 26.6864C75.3479 26.3485 75.2202 25.9485 75.1577 25.4989C75.1137 25.1818 74.829 24.9448 74.4929 24.9448H72.1767C71.9952 24.9448 71.8216 25.0142 71.6956 25.1378C71.5692 25.2614 71.5007 25.4286 71.5058 25.6008C71.5336 26.5096 71.7646 27.3364 72.1929 28.0582C72.6109 28.7633 73.1628 29.3684 73.8327 29.8577C74.4905 30.3392 75.2456 30.7128 76.0762 30.9679C76.8989 31.2202 77.7517 31.348 78.6109 31.348C79.3794 31.348 80.1581 31.2438 80.9248 31.0387C81.7054 30.83 82.4174 30.5124 83.0405 30.0957C83.6794 29.6684 84.2077 29.1267 84.61 28.4846C85.0267 27.8202 85.2378 27.0392 85.2378 26.1651C85.2378 25.5925 85.1489 25.0573 84.9739 24.5753C84.8007 24.0999 84.5567 23.6582 84.2479 23.2624Z" fill="#3E474A"/>
<path fill-rule="evenodd" clip-rule="evenodd" d="M99.1145 12.8711H96.9696C96.5993 12.8711 96.2988 13.1563 96.2988 13.5086V20.1665H90.3238V13.5086C90.3238 13.1563 90.0238 12.8711 89.6534 12.8711H87.5206C87.1502 12.8711 86.8497 13.1563 86.8497 13.5086V30.4771C86.8497 30.8294 87.1502 31.1146 87.5206 31.1146H89.6534C90.0238 31.1146 90.3238 30.8294 90.3238 30.4771V23.2716H96.2988V30.4771C96.2988 30.8294 96.5993 31.1146 96.9696 31.1146H99.1145C99.4849 31.1146 99.7854 30.8294 99.7854 30.4771V13.5086C99.7854 13.1563 99.4849 12.8711 99.1145 12.8711Z" fill="#3E474A"/>
<path fill-rule="evenodd" clip-rule="evenodd" d="M44.0939 34.056H43.2823V36.2273H42.8485V34.056H42.0425V33.7139H44.0939V34.056Z" fill="#3E474A"/>
<path fill-rule="evenodd" clip-rule="evenodd" d="M46.5924 36.2273H46.1679V35.1055H45.2693V36.2273H44.8461V33.7139H45.2693V34.7653H46.1679V33.7139H46.5924V36.2273Z" fill="#3E474A"/>
<path fill-rule="evenodd" clip-rule="evenodd" d="M49.0876 35.1005H48.0001V35.8894H49.2728V36.2273H47.5626V33.7144H49.2598V34.056H48.0001V34.7653H49.0876V35.1005Z" fill="#3E474A"/>
<path fill-rule="evenodd" clip-rule="evenodd" d="M53.2915 35.0879V35.8889H53.767C53.8359 35.8879 53.8989 35.8778 53.9559 35.8588C54.0128 35.8398 54.0614 35.8134 54.1031 35.7801C54.1438 35.7467 54.1762 35.706 54.1998 35.6574C54.2235 35.6092 54.2355 35.5555 54.2355 35.4953C54.2355 35.4319 54.2253 35.3754 54.2045 35.3254C54.1836 35.275 54.154 35.2328 54.1156 35.1981C54.0767 35.1639 54.0295 35.137 53.9739 35.118C53.9184 35.0991 53.8559 35.0893 53.7869 35.0879H53.2915ZM53.2915 34.7717H53.7091C53.7744 34.7708 53.835 34.7625 53.8915 34.7467C53.9475 34.7315 53.9961 34.7083 54.0373 34.6778C54.0785 34.6477 54.1114 34.6102 54.1355 34.5657C54.1596 34.5213 54.1716 34.4703 54.1716 34.4134C54.1716 34.35 54.1605 34.2958 54.1373 34.2504C54.1142 34.206 54.0818 34.169 54.0401 34.1403C53.9985 34.112 53.9494 34.0907 53.8924 34.0773C53.8355 34.0639 53.773 34.0569 53.7054 34.0555H53.2915V34.7717ZM52.854 36.2273V33.7139H53.698C53.8253 33.7153 53.9438 33.7291 54.0545 33.7555C54.1656 33.7819 54.2623 33.8231 54.3452 33.8782C54.4281 33.9333 54.4929 34.0037 54.5401 34.0893C54.5873 34.175 54.6105 34.2768 54.6091 34.3944C54.6082 34.5185 54.5716 34.6245 54.5003 34.7125C54.429 34.8009 54.3327 34.869 54.2119 34.9171C54.2855 34.9366 54.3512 34.9648 54.4086 35.0009C54.466 35.037 54.5142 35.0805 54.5531 35.131C54.5915 35.1819 54.6216 35.2379 54.642 35.2991C54.6623 35.3611 54.673 35.4264 54.673 35.4953C54.673 35.6148 54.6498 35.7204 54.6035 35.8111C54.5577 35.9018 54.4938 35.9778 54.4123 36.0389C54.3304 36.1 54.2336 36.1463 54.1221 36.1778C54.01 36.2097 53.8892 36.2264 53.7596 36.2273H52.854Z" fill="#3E474A"/>
<path fill-rule="evenodd" clip-rule="evenodd" d="M56.8683 34.8089C56.8674 34.7144 56.8581 34.6204 56.841 34.5274C56.8243 34.4343 56.7956 34.351 56.7558 34.2783C56.7155 34.2047 56.6628 34.1459 56.597 34.1001C56.5308 34.0547 56.4484 34.032 56.3493 34.032C56.2512 34.032 56.1697 34.0547 56.1049 34.1001C56.0405 34.1459 55.9887 34.2052 55.9507 34.2788C55.9123 34.3524 55.8859 34.4352 55.8706 34.5283C55.8558 34.6209 55.8475 34.7144 55.8461 34.8089V35.1329C55.8475 35.2274 55.8563 35.3209 55.8716 35.4139C55.8878 35.5065 55.9141 35.5899 55.9526 35.6639C55.9905 35.738 56.0424 35.7982 56.1067 35.8445C56.1716 35.8903 56.253 35.9135 56.3512 35.9135C56.4503 35.9135 56.5327 35.8903 56.5989 35.8445C56.6646 35.7982 56.7174 35.7385 56.7577 35.6649C56.7975 35.5908 56.8257 35.5079 56.8419 35.4144C56.8581 35.3214 56.8674 35.2274 56.8683 35.1329V34.8089ZM57.3058 35.1329C57.3058 35.2815 57.2859 35.4241 57.2456 35.5602C57.2058 35.6968 57.1461 35.8167 57.0669 35.9214C56.9878 36.0251 56.8887 36.1079 56.7692 36.1695C56.6503 36.2311 56.5109 36.2616 56.3512 36.2616C56.1924 36.2616 56.0544 36.2306 55.9373 36.1686C55.8197 36.1065 55.722 36.0232 55.6438 35.9195C55.566 35.8153 55.5072 35.6954 55.4679 35.5593C55.4285 35.4237 55.4091 35.2815 55.4091 35.1329V34.8121C55.4091 34.713 55.4174 34.6167 55.4354 34.5223C55.4526 34.4278 55.479 34.3389 55.5132 34.2552C55.5479 34.1718 55.591 34.095 55.6419 34.0241C55.6933 33.9533 55.754 33.8927 55.8234 33.8422C55.8933 33.7913 55.972 33.7514 56.0595 33.7227C56.1475 33.6945 56.2438 33.6797 56.3493 33.6797C56.5091 33.6797 56.6484 33.7107 56.7679 33.7732C56.8868 33.8352 56.9864 33.9186 57.0665 34.0223C57.1461 34.1269 57.2058 34.2473 57.2456 34.3843C57.2859 34.5209 57.3058 34.6635 57.3058 34.8121V35.1329Z" fill="#3E474A"/>
<path fill-rule="evenodd" clip-rule="evenodd" d="M59.8915 33.7139L59.8952 35.3972C59.8938 35.5259 59.872 35.644 59.8299 35.75C59.7873 35.8565 59.7281 35.9477 59.6517 36.0236C59.5757 36.0995 59.4836 36.1583 59.3748 36.1995C59.267 36.2407 59.1457 36.2616 59.0114 36.2616C58.8804 36.2616 58.7619 36.2407 58.6554 36.1995C58.5489 36.1583 58.4577 36.1 58.3813 36.0245C58.3049 35.9491 58.2457 35.8578 58.2035 35.7514C58.1609 35.6453 58.1392 35.5268 58.1382 35.3972L58.1419 33.7139H58.5702L58.5734 35.3972C58.5748 35.4741 58.585 35.5449 58.6045 35.6092C58.6239 35.6741 58.6517 35.7291 58.6882 35.7754C58.7244 35.8222 58.7693 35.8588 58.8234 35.8847C58.8771 35.9106 58.9396 35.9236 59.0114 35.9236C59.0836 35.9236 59.148 35.9106 59.2035 35.8847C59.2591 35.8588 59.3058 35.8222 59.3433 35.7754C59.3808 35.7291 59.4091 35.6741 59.429 35.6092C59.448 35.5449 59.4582 35.4741 59.4595 35.3972L59.4632 33.7139H59.8915Z" fill="#3E474A"/>
<path fill-rule="evenodd" clip-rule="evenodd" d="M61.274 34.912H61.6749C61.7476 34.912 61.8142 34.9023 61.8749 34.8828C61.9351 34.8629 61.9874 34.8352 62.0318 34.7991C62.0758 34.7625 62.1101 34.7185 62.1341 34.6657C62.1582 34.6139 62.1707 34.5532 62.1707 34.4856C62.1707 34.4153 62.1592 34.3532 62.136 34.2995C62.1129 34.2449 62.08 34.1995 62.0369 34.1625C61.9943 34.1259 61.942 34.0981 61.88 34.0791C61.8184 34.0602 61.7494 34.05 61.673 34.0491H61.274V34.912ZM61.7166 35.2467H61.274V36.2268H60.8383V33.7139H61.673C61.8087 33.7153 61.9337 33.7315 62.048 33.7634C62.1624 33.7949 62.2615 33.8421 62.3448 33.9046C62.4286 33.9676 62.4929 34.0458 62.5388 34.1403C62.5851 34.2347 62.6078 34.3449 62.6078 34.4717C62.6078 34.5569 62.5962 34.6342 62.5726 34.7037C62.549 34.7736 62.5161 34.8366 62.4735 34.893C62.4314 34.9491 62.3804 34.9986 62.3212 35.0412C62.2619 35.0842 62.1967 35.1204 62.1254 35.15L62.6842 36.2065V36.2268H62.2198L61.7166 35.2467Z" fill="#3E474A"/>
<path fill-rule="evenodd" clip-rule="evenodd" d="M65.1993 36.2273H64.7599L63.8997 34.4981L63.8979 36.2273H63.4567V33.7139H63.8979L64.7548 35.4389L64.7585 33.7139H65.1993V36.2273Z" fill="#3E474A"/>
<path fill-rule="evenodd" clip-rule="evenodd" d="M67.6963 35.1005H66.6088V35.8894H67.8815V36.2273H66.1713V33.7144H67.8685V34.056H66.6088V34.7653H67.6963V35.1005Z" fill="#3E474A"/>
<path fill-rule="evenodd" clip-rule="evenodd" d="M68.988 35.2914H70.4417V34.9585H68.988V35.2914Z" fill="#3E474A"/>
<path fill-rule="evenodd" clip-rule="evenodd" d="M72.0307 35.2898H72.6368L72.3377 34.3046L72.0307 35.2898ZM72.746 35.644H71.9201L71.7386 36.2273H71.2881L72.1469 33.7139H72.5298L73.3724 36.2273H72.9238L72.746 35.644Z" fill="#3E474A"/>
<path fill-rule="evenodd" clip-rule="evenodd" d="M75.8961 35.9135C75.8517 35.9639 75.7989 36.0107 75.7383 36.0533C75.6776 36.0959 75.61 36.1325 75.535 36.1635C75.46 36.1945 75.3785 36.2186 75.291 36.2362C75.2031 36.2533 75.1096 36.2616 75.0105 36.2616C74.8517 36.2616 74.7114 36.2325 74.5892 36.1737C74.467 36.1153 74.3637 36.0352 74.2799 35.9334C74.1957 35.8311 74.1318 35.7112 74.0873 35.5732C74.0434 35.4352 74.0207 35.2866 74.0193 35.1278V34.8177C74.0193 34.6584 74.041 34.5102 74.0846 34.3723C74.1281 34.2339 74.1906 34.1139 74.2725 34.0112C74.3545 33.9084 74.4545 33.8278 74.573 33.769C74.6915 33.7093 74.8272 33.6797 74.9795 33.6797C75.116 33.6797 75.2383 33.6977 75.3461 33.7329C75.454 33.769 75.5466 33.8204 75.6239 33.888C75.7012 33.9552 75.7628 34.0371 75.8082 34.1339C75.8535 34.2302 75.8823 34.3385 75.8943 34.4584H75.466C75.4554 34.3903 75.4383 34.3292 75.4151 34.2755C75.392 34.2214 75.3614 34.1751 75.3225 34.1371C75.2836 34.0991 75.2369 34.0704 75.1818 34.0501C75.1267 34.0297 75.0619 34.02 74.9869 34.02C74.8947 34.02 74.816 34.0413 74.7498 34.0843C74.6841 34.1278 74.6295 34.1857 74.586 34.2589C74.5424 34.332 74.51 34.4167 74.4892 34.5126C74.4688 34.6089 74.4577 34.7093 74.4568 34.8139V35.1278C74.4577 35.2325 74.4693 35.3329 74.4901 35.4283C74.5114 35.5237 74.5448 35.6084 74.5901 35.6811C74.6355 35.7542 74.6938 35.8126 74.7651 35.8565C74.8369 35.9001 74.9225 35.9227 75.023 35.9237C75.0642 35.9237 75.1068 35.9214 75.1503 35.9163C75.1938 35.9107 75.2355 35.9024 75.2744 35.8913C75.3137 35.8792 75.3498 35.8649 75.3827 35.8473C75.4151 35.8288 75.442 35.807 75.4623 35.7802L75.466 35.2778H74.9887V34.9556H75.8924L75.8961 35.9135Z" fill="#3E474A"/>
<path fill-rule="evenodd" clip-rule="evenodd" d="M77.3476 35.2898H77.9536L77.6545 34.3046L77.3476 35.2898ZM78.0629 35.644H77.2369L77.0554 36.2273H76.605L77.4638 33.7139H77.8466L78.6892 36.2273H78.2406L78.0629 35.644Z" fill="#3E474A"/>
<path fill-rule="evenodd" clip-rule="evenodd" d="M79.4977 33.7139H81.0699V34.0574H80.4981V35.8856H81.0699V36.2273H79.4977V35.8856H80.0569V34.0574H79.4977V33.7139Z" fill="#3E474A"/>
<path fill-rule="evenodd" clip-rule="evenodd" d="M83.8079 36.2273H83.3685L82.5084 34.4981L82.5065 36.2273H82.0653V33.7139H82.5065L83.3635 35.4389L83.3672 33.7139H83.8079V36.2273Z" fill="#3E474A"/>
<path fill-rule="evenodd" clip-rule="evenodd" d="M88.7869 35.5801C88.7869 35.5204 88.7739 35.4677 88.748 35.4223C88.7216 35.3764 88.685 35.3371 88.6369 35.3019C88.5892 35.2676 88.5327 35.2376 88.4665 35.2116C88.4008 35.1857 88.329 35.1621 88.2512 35.1399C88.1475 35.1112 88.0448 35.0755 87.9438 35.0329C87.8424 34.9903 87.7526 34.938 87.6735 34.8769C87.5938 34.8153 87.5299 34.7431 87.4809 34.6607C87.4318 34.5788 87.4073 34.4839 87.4073 34.3755C87.4073 34.2672 87.4318 34.1704 87.4809 34.0843C87.5299 33.9987 87.5957 33.9264 87.6776 33.8663C87.76 33.8065 87.8559 33.7602 87.9647 33.7278C88.0735 33.6959 88.1874 33.6797 88.3059 33.6797C88.4332 33.6797 88.5517 33.6987 88.6628 33.7357C88.7735 33.7732 88.8702 33.826 88.9531 33.8931C89.036 33.9602 89.1017 34.0408 89.1499 34.1343C89.1985 34.2283 89.223 34.3325 89.2244 34.4464H88.7888C88.7827 34.3829 88.7684 34.3251 88.7462 34.2727C88.7235 34.2204 88.692 34.1751 88.6517 34.1371C88.611 34.0991 88.5619 34.07 88.5036 34.0491C88.4457 34.0283 88.3786 34.0181 88.3022 34.0181C88.2369 34.0181 88.1762 34.0264 88.1207 34.0422C88.0651 34.0579 88.017 34.082 87.9762 34.113C87.936 34.144 87.904 34.1815 87.8813 34.2251C87.8582 34.269 87.8466 34.3186 87.8466 34.3737C87.8466 34.4325 87.8624 34.4834 87.8938 34.5264C87.9253 34.5695 87.9665 34.6075 88.017 34.6394C88.0679 34.6718 88.1267 34.6996 88.1924 34.7232C88.2587 34.7468 88.3272 34.7681 88.3985 34.7876C88.5087 34.819 88.6137 34.857 88.7142 34.9028C88.8147 34.9482 88.9031 35.0028 88.9795 35.0667C89.0554 35.1306 89.1161 35.2047 89.161 35.2885C89.2054 35.3723 89.2281 35.4686 89.2281 35.5769C89.2281 35.6885 89.2031 35.7866 89.1536 35.8718C89.104 35.957 89.0374 36.0288 88.954 36.0857C88.8702 36.1431 88.7735 36.1866 88.6637 36.2163C88.5536 36.2454 88.4383 36.2602 88.3184 36.2602C88.2374 36.2602 88.1573 36.2528 88.0772 36.2376C87.9971 36.2232 87.9207 36.2005 87.8475 36.1704C87.7744 36.1408 87.7063 36.1038 87.6434 36.0593C87.5804 36.0149 87.5258 35.9635 87.479 35.9056C87.4327 35.8473 87.3957 35.7825 87.3693 35.7102C87.3424 35.6385 87.3286 35.5593 87.3276 35.4732H87.7647C87.7712 35.5491 87.7883 35.6149 87.8175 35.6714C87.8466 35.7278 87.885 35.7751 87.9337 35.8121C87.9823 35.8496 88.0387 35.8783 88.1036 35.8973C88.1684 35.9158 88.2397 35.9255 88.3184 35.9255C88.3841 35.9255 88.4452 35.9176 88.5017 35.9033C88.5587 35.888 88.6087 35.8658 88.6508 35.8366C88.6929 35.807 88.7263 35.7709 88.7508 35.7274C88.7749 35.6843 88.7869 35.6352 88.7869 35.5801Z" fill="#3E474A"/>
<path fill-rule="evenodd" clip-rule="evenodd" d="M91.7847 36.2273H91.3602V35.1055H90.4616V36.2273H90.0385V33.7139H90.4616V34.7653H91.3602V33.7139H91.7847V36.2273Z" fill="#3E474A"/>
<path fill-rule="evenodd" clip-rule="evenodd" d="M94.2799 35.1005H93.1924V35.8894H94.4651V36.2273H92.7549V33.7144H94.4521V34.056H93.1924V34.7653H94.2799V35.1005Z" fill="#3E474A"/>
<path fill-rule="evenodd" clip-rule="evenodd" d="M95.8673 35.8894H97.127V36.2273H95.4316V33.7144H95.8673V35.8894Z" fill="#3E474A"/>
<path fill-rule="evenodd" clip-rule="evenodd" d="M98.5257 35.8894H99.7855V36.2273H98.0901V33.7144H98.5257V35.8894Z" fill="#3E474A"/>
</g>
<defs>
<clipPath id="clip0_3425_476">
<rect width="100" height="42.1296" fill="white" transform="translate(0 0.935059)"/>
</clipPath>
</defs>
</svg>
