<svg width="51" height="72" viewBox="0 0 51 72" fill="none" xmlns="http://www.w3.org/2000/svg">
<path d="M4.74371 0H7.97809V3.20625H10.9593V0H14.1937V9.70312H10.9593V6.46875H8.00621V9.70312H4.74371M18.4687 3.23438H15.614V0H24.5718V3.23438H21.7031V9.70312H18.4687M25.9922 0H29.3812L31.4625 3.41719L33.5437 0H36.9328V9.70312H33.6984V4.89375L31.4343 8.38125L29.1703 4.89375V9.70312H25.9922M38.5359 0H41.7703V6.49688H46.3547V9.70312H38.5359" fill="black"/>
<path d="M4.63123 66.2345L-0.00939941 14.147H51.0093L46.3687 66.2063L25.4578 72.0001" fill="#E44D26"/>
<path d="M25.5 67.5703V18.4219H46.3547L42.375 62.8594" fill="#F16529"/>
<path d="M9.46875 24.792H25.5V31.1764H16.4719L17.0625 37.7154H25.5V44.0857H11.2125M11.4937 47.292H17.9062L18.3562 52.3967L25.5 54.3092V60.9748L12.3938 57.3186" fill="#EBEBEB"/>
<path d="M41.475 24.792H25.4719V31.1764H40.8844M40.3078 37.7154H25.4719V44.0998H33.3469L32.6015 52.3967L25.4719 54.3092V60.9467L38.55 57.3186" fill="white"/>
</svg>
