<svg width="56" height="100" viewBox="0 0 56 100" fill="none" xmlns="http://www.w3.org/2000/svg">
<path d="M52.5644 78.3538H52.1938V78.1465H53.1913V78.3538H52.8233V79.3879H52.5644V78.3538ZM54.5538 78.4078H54.548L54.1809 79.3881H54.0129L53.6482 78.4078H53.6437V79.3881H53.3997V78.1467H53.7588L54.0969 79.0258L54.434 78.1467H54.7918V79.3881H54.5537L54.5538 78.4078Z" fill="#5382A1"/>
<path d="M19.3966 52.9678C19.3966 52.9678 16.8187 54.4669 21.2311 54.9741C26.5766 55.584 29.3086 55.4965 35.1993 54.3816C35.1993 54.3816 36.748 55.3527 38.9109 56.1938C25.7055 61.8534 9.02437 55.866 19.3966 52.9678Z" fill="#5382A1"/>
<path d="M17.783 45.5825C17.783 45.5825 14.8917 47.7227 19.3073 48.1794C25.0175 48.7685 29.527 48.8167 37.33 47.3142C37.33 47.3142 38.4093 48.4083 40.1064 49.0067C24.1402 53.6754 6.35677 49.3749 17.783 45.5825Z" fill="#5382A1"/>
<path d="M31.3864 33.0544C34.6402 36.8005 30.5315 40.1716 30.5315 40.1716C30.5315 40.1716 38.7935 35.9065 34.9991 30.5656C31.4553 25.5849 28.7376 23.1102 43.4498 14.5776C43.4498 14.5776 20.3565 20.3453 31.3864 33.0544Z" fill="#F8981D"/>
<path d="M48.8517 58.4309C48.8517 58.4309 50.7593 60.0027 46.7508 61.2187C39.1284 63.5278 15.0257 64.2251 8.33004 61.3107C5.92313 60.2636 10.4368 58.8105 11.8566 58.5056C13.3373 58.1845 14.1835 58.2443 14.1835 58.2443C11.5068 56.3587 -3.11778 61.9469 6.75495 63.5473C33.6793 67.9136 55.8355 61.5811 48.8517 58.4309Z" fill="#5382A1"/>
<path d="M20.6362 37.9304C20.6362 37.9304 8.37602 40.8424 16.2946 41.8999C19.638 42.3475 26.3031 42.2462 32.5115 41.726C37.5853 41.298 42.68 40.388 42.68 40.388C42.68 40.388 40.8909 41.1542 39.5966 42.038C27.1466 45.3124 3.09547 43.7891 10.0195 40.4399C15.8751 37.6093 20.6362 37.9304 20.6362 37.9304Z" fill="#5382A1"/>
<path d="M42.6295 50.224C55.2855 43.6474 49.4338 37.3274 45.3495 38.1789C44.3484 38.3872 43.902 38.5678 43.902 38.5678C43.902 38.5678 44.2737 37.9856 44.9835 37.7336C53.0637 34.8929 59.2778 46.112 42.3751 50.5554C42.3751 50.5554 42.5709 50.3805 42.6295 50.224Z" fill="#5382A1"/>
<path d="M34.9991 0.799805C34.9991 0.799805 42.0082 7.81126 28.3513 18.5929C17.3999 27.2416 25.854 32.1729 28.3468 37.8071C21.9542 32.0394 17.2629 26.9622 20.4102 22.2367C25.0297 15.3002 37.8271 11.9371 34.9991 0.799805Z" fill="#F8981D"/>
<path d="M21.8799 68.0449C34.028 68.8225 52.683 67.6134 53.1248 61.8652C53.1248 61.8652 52.2755 64.0443 43.085 65.7749C32.7162 67.7261 19.9279 67.4983 12.343 66.2478C12.343 66.2478 13.8957 67.5329 21.8799 68.0449Z" fill="#5382A1"/>
<path d="M19.889 90.0087C18.743 91.0027 17.5326 91.5607 16.4464 91.5607C14.896 91.5607 14.0584 90.6311 14.0584 89.14C14.0584 87.5271 14.9559 86.3478 18.5564 86.3478H19.8888L19.889 90.0087ZM23.0511 93.5765V82.5325C23.0511 79.7112 21.442 77.8496 17.5624 77.8496C15.2975 77.8496 13.3135 78.4089 11.701 79.1222L12.1664 81.0771C13.436 80.6111 15.0795 80.1772 16.6926 80.1772C18.9275 80.1772 19.889 81.0771 19.889 82.9374V84.3332H18.7735C13.3435 84.3332 10.894 86.4411 10.894 89.6049C10.894 92.3352 12.5082 93.8872 15.5475 93.8872C17.5011 93.8872 18.9595 93.0807 20.3228 91.9003L20.5702 93.5767L23.0511 93.5765Z" fill="#5382A1"/>
<path d="M33.6045 93.5767H29.6605L24.914 78.1294H28.3582L31.3035 87.6203L31.9582 90.4747C33.4482 86.3478 34.502 82.1608 35.0291 78.1294H38.3795C37.4818 83.2161 35.8665 88.7994 33.6045 93.5767Z" fill="#5382A1"/>
<path d="M48.7342 90.0087C47.586 91.0027 46.3735 91.5607 45.2873 91.5607C43.7397 91.5607 42.8998 90.6311 42.8998 89.14C42.8998 87.5271 43.7995 86.3478 47.3997 86.3478H48.7342V90.0087ZM51.896 93.5765V82.5325C51.896 79.7112 50.2829 77.8496 46.4078 77.8496C44.1413 77.8496 42.1566 78.4089 40.5448 79.1222L41.0095 81.0771C42.2797 80.6111 43.9262 80.1772 45.538 80.1772C47.7713 80.1772 48.7342 81.0771 48.7342 82.9374V84.3332H47.6169C42.1853 84.3332 39.7369 86.4411 39.7369 89.6049C39.7369 92.3352 41.3498 93.8872 44.3886 93.8872C46.3433 93.8872 47.8011 93.0807 49.1668 91.9003L49.4151 93.5767L51.896 93.5765Z" fill="#5382A1"/>
<path d="M7.42673 96.1999C6.52527 97.5161 5.06927 98.5574 3.47527 99.1465L1.914 97.3092C3.12727 96.6867 4.16782 95.6812 4.65127 94.7446C5.06946 93.9117 5.24255 92.8383 5.24255 90.2712V72.6357H8.60218V90.0296C8.602 93.4616 8.32764 94.8479 7.42673 96.1999Z" fill="#5382A1"/>
</svg>
