<svg width="100" height="26" viewBox="0 0 100 26" fill="none" xmlns="http://www.w3.org/2000/svg">
<g clip-path="url(#clip0_3425_292)">
<path d="M42.7624 9.57127L42.7626 9.57031L42.1224 11.8393L42.7624 9.57127Z" fill="#131B28"/>
<path d="M45.8737 17.8853H45.8745L41.6477 17.9006L45.8737 17.8853Z" fill="#131B28"/>
<path d="M46.2441 17.597L46.9804 14.7891L46.2441 17.5976V17.597Z" fill="#131B28"/>
<path d="M58.2803 4.6664L57.2391 9.48314L58.2803 4.66602V4.6664Z" fill="#131B28"/>
<path d="M61.571 4.37598H58.6382C58.4755 4.37598 58.3139 4.50653 58.2792 4.66554L57.238 9.48266L56.1968 14.2998C56.1623 14.4588 56.0009 14.5889 55.8382 14.5889H54.0586H53.7623C51.7086 14.5889 51.9461 13.1686 52.3667 11.2223C52.3709 11.2027 52.3752 11.1836 52.3793 11.1636L52.4255 10.9183C52.4283 10.9025 52.4315 10.8866 52.4341 10.8721L52.5278 10.3727L52.6283 9.83746C52.6589 9.67613 52.7052 9.44018 52.7356 9.29192L53.2088 6.97923L53.6826 4.66655C53.7152 4.50708 53.6084 4.37605 53.4457 4.37605H50.4353C50.2726 4.37605 50.1115 4.50708 50.0782 4.66609L49.431 7.737L48.7838 10.8075C48.7832 10.8089 48.783 10.8108 48.7828 10.8122L48.7227 11.0976C47.9771 14.5014 48.1748 17.7472 52.2267 17.8488C52.293 17.8508 52.3442 17.8512 52.3442 17.8512H58.7046C58.8673 17.8512 59.0284 17.7207 59.0624 17.5612L60.434 11.114L61.8056 4.66618C61.8394 4.50671 61.7338 4.37598 61.571 4.37598Z" fill="#131B28"/>
<path d="M73.2711 14.6226C73.434 14.6226 73.5406 14.7531 73.5079 14.9126L73.223 16.3044" fill="#131B28"/>
<path d="M72.9387 17.6975L73.2234 16.3047L72.9385 17.6979C72.9385 17.6976 72.9387 17.6975 72.9387 17.6975Z" fill="#131B28"/>
<path d="M72.5816 17.9901C72.5819 17.9901 72.5825 17.9897 72.5829 17.9897C71.7198 17.9967 69.1262 18.0163 67.1768 18.0163C69.5492 18.0163 72.5814 17.9902 72.5814 17.9902L72.5816 17.9901Z" fill="#131B28"/>
<path d="M65.4271 12.8297C65.4247 12.6773 65.5982 12.4147 65.7612 12.4147L65.395 12.4087C65.2299 14.0687 65.4271 12.8297 65.4271 12.8297Z" fill="#131B28"/>
<path d="M73.2711 14.6226C73.434 14.6226 73.5406 14.7531 73.5079 14.9126L73.223 16.3044L73.1766 16.5315" fill="#131B28"/>
<path d="M68.821 18.0127C68.5836 18.0137 68.3468 18.0146 68.1134 18.0151C68.3468 18.0147 68.5839 18.0137 68.821 18.0127Z" fill="#131B28"/>
<path d="M72.5835 17.9897C71.951 17.9949 70.3893 18.0065 68.8315 18.0126C70.3884 18.007 71.9508 17.9949 72.5835 17.9897Z" fill="#131B28"/>
<path d="M72.9387 17.6979L73.1772 16.5317L72.9385 17.6988C72.9385 17.6985 72.9387 17.6985 72.9387 17.6979Z" fill="#131B28"/>
<path d="M24.7064 12.8647L25.1619 10.8452L24.6411 13.1537L24.1412 15.5052L24.5793 13.4438C24.6131 13.2843 24.6705 13.0237 24.7064 12.8647Z" fill="#131B28"/>
<path d="M30.1591 4.34229H26.9383C26.7753 4.34229 26.6128 4.47238 26.5764 4.63091L26.271 5.97893L25.9656 7.32743C25.9297 7.48596 26.0334 7.61605 26.1964 7.61605H29.4423C29.605 7.61605 29.7668 7.48596 29.8018 7.32695L30.0969 5.97893L30.3921 4.63184V4.63146C30.4268 4.47246 30.3221 4.34229 30.1591 4.34229Z" fill="#131B28"/>
<path d="M29.4582 8.82655V8.82617L28.5135 13.1966L29.4582 8.82655Z" fill="#131B28"/>
<path d="M20.1016 23.3066C20.1016 23.3066 21.7252 23.3276 22.7573 23.3276C21.9733 23.3276 20.6784 23.3132 20.1003 23.3062C20.1009 23.3062 20.1012 23.3065 20.1018 23.3065L20.1016 23.3066Z" fill="#131B28"/>
<path d="M29.2252 8.53711H25.9789C25.8162 8.53711 25.6535 8.66721 25.6175 8.82621L25.1615 10.8457L24.706 12.8652C24.6701 13.0243 24.6127 13.2849 24.5789 13.4444L24.1408 15.5057L23.703 17.5671C23.669 17.7261 23.599 17.983 23.5468 18.1373C23.5468 18.1373 22.9404 19.9418 21.9209 19.9213C21.8775 19.9203 21.8353 19.92 21.7936 19.9189C21.2995 19.9096 20.9114 19.9026 20.9114 19.9026H20.9106C20.7481 19.9002 20.5847 20.0271 20.5467 20.1852L20.21 21.6003L19.8738 23.015C19.8361 23.1731 19.9382 23.3036 20.1 23.3065C20.6782 23.3134 21.973 23.3279 22.757 23.3279C25.3037 23.3279 26.6461 21.9169 27.5067 17.8566L28.5139 13.1967L29.4586 8.82628C29.4928 8.66728 29.3877 8.53718 29.225 8.53718L29.2252 8.53711Z" fill="#131B28"/>
<path d="M75.3394 17.8514C75.1767 17.8514 75.0711 17.7209 75.1053 17.5614L77.5473 6.12305" fill="#131B28"/>
<path d="M75.1409 17.7063C75.1211 17.6266 75.1327 17.4312 75.1672 17.2717L76.3262 11.8423L75.1052 17.5613C75.0709 17.7207 75.1766 17.8513 75.3393 17.8513H75.6359C75.4729 17.8513 75.1605 17.786 75.1409 17.7063Z" fill="#131B28"/>
<path d="M78.5404 17.7858C78.4518 17.8217 78.2457 17.851 78.0828 17.851H78.3793C78.542 17.851 78.702 17.7205 78.7341 17.5605L78.7929 17.2705C78.7605 17.43 78.6292 17.7499 78.5404 17.7858Z" fill="#131B28"/>
<path d="M79.228 15.1196L79.6639 12.9648C79.6637 12.9662 79.6635 12.9681 79.6632 12.969L79.228 15.1196Z" fill="#131B28"/>
<path d="M88.8634 6.88916L88.9979 7.44498C89.035 7.60398 88.9322 7.73314 88.7697 7.7336" fill="#131B28"/>
<path d="M79.6635 12.9651C79.6959 12.8057 79.7495 12.5474 79.7833 12.3893L80.2489 10.208L79.7215 12.6788L79.6635 12.9651Z" fill="#131B28"/>
<path d="M77.5874 5.93555C77.555 6.08942 77.5135 6.28385 77.486 6.41256L76.327 11.8424L77.548 6.12302L77.5874 5.93555Z" fill="#131B28"/>
<path d="M88.9971 7.44472L88.8626 6.88891L88.7295 6.31957L88.6621 6.03141C88.3984 5.00698 87.6244 4.41573 85.9438 4.41573L83.3272 4.41294L80.9175 4.41016H80.7107H78.2061C78.0433 4.41016 77.8822 4.54025 77.8487 4.69971H77.8485L77.7286 5.26625L77.5871 5.93536L77.5477 6.1228L76.3268 11.8422L75.1678 17.2716C75.1333 17.4311 75.1217 17.6264 75.1415 17.7062C75.1611 17.7859 75.4735 17.8512 75.6364 17.8512H78.0826C78.2456 17.8512 78.4517 17.8218 78.5403 17.7859C78.6291 17.75 78.7603 17.4301 78.7928 17.2707L79.2276 15.1197L79.6628 12.9692C79.663 12.9682 79.6632 12.9664 79.6636 12.965L79.7216 12.6787L80.249 10.2079L80.7148 8.02564C80.7493 7.86711 80.9097 7.73748 81.0722 7.73702L88.7691 7.73329C88.9316 7.73291 89.0344 7.60367 88.9973 7.44467L88.9971 7.44472Z" fill="#131B28"/>
<path d="M98.9056 2.41917C98.7427 2.42031 98.4762 2.42133 98.3132 2.42133H95.8496C95.6867 2.42133 95.478 2.53137 95.3862 2.66589L89.9386 10.6467C89.8465 10.7815 89.7416 10.7615 89.7054 10.6029L89.3047 8.84458C89.2685 8.68558 89.1053 8.55595 88.9426 8.55595H85.4404C85.2774 8.55595 85.1809 8.68372 85.2255 8.84039L86.7947 14.3378C86.8395 14.4945 86.8428 14.7519 86.8024 14.9095L86.1184 17.5702C86.0778 17.7282 86.1781 17.8574 86.3411 17.8574H89.8024C89.9651 17.8574 90.1315 17.7282 90.1719 17.5702L90.8562 14.9095C90.8965 14.7519 91.0098 14.516 91.108 14.3859L99.9519 2.64786C100.05 2.51777 99.9969 2.41191 99.8342 2.4131L98.9056 2.41917Z" fill="#131B28"/>
<path d="M71.0823 9.3042L71.0821 9.30094C71.0616 9.47765 70.8987 9.60728 70.7359 9.60728H66.2958C66.1424 9.60728 66.0643 9.50283 66.0869 9.37414C66.0882 9.37042 66.0888 9.36715 66.0911 9.36389C66.0911 9.36389 66.0896 9.36427 66.0883 9.36522C66.0893 9.36009 66.0893 9.35544 66.0907 9.35031C66.0907 9.35031 66.0991 9.31907 66.111 9.27477C66.5351 8.1473 67.3989 7.40731 69.0222 7.40731C70.8498 7.40731 71.2065 8.30031 71.0823 9.3042ZM69.7798 4.1792C64.0805 4.1792 62.73 7.63859 61.9723 11.1301C61.2146 14.6888 61.2799 18.0162 67.1774 18.0162H67.3867C67.4054 18.0158 67.4245 18.0158 67.4431 18.0158H67.6082H67.6688H67.8236C67.8465 18.0154 67.8693 18.0154 67.8926 18.0154C67.9514 18.0154 68.0108 18.015 68.0703 18.015H68.112C68.3454 18.0146 68.5823 18.0135 68.8196 18.0126H68.8315C70.3891 18.0066 71.9511 17.9949 72.5839 17.9898C72.7457 17.9874 72.904 17.8569 72.9373 17.6988L73.176 16.5317L73.2224 16.3047L73.5073 14.9128C73.54 14.7533 73.4334 14.6228 73.2705 14.6228H67.9684C65.8597 14.6228 65.2335 14.0623 65.4642 12.4149H73.9397L73.9389 12.4159C73.9411 12.4159 73.9429 12.4149 73.9448 12.4149C74.0795 12.4125 74.204 12.3198 74.2534 12.1963C74.2628 12.1725 74.2707 12.1478 74.2739 12.1221L74.273 12.1231C75.5315 7.37622 75.1706 4.17945 69.7794 4.17945L69.7798 4.1792Z" fill="#131B28"/>
<path d="M42.8427 9.28613L42.7625 9.5701C42.7625 9.57105 42.7623 9.57105 42.7623 9.57105L42.1223 11.839L41.4826 14.1067C41.4383 14.2633 41.269 14.3916 41.1058 14.3916H37.7185C35.1491 14.3916 34.5234 12.382 35.1491 9.41782C35.7746 6.38606 37.0012 4.50138 39.53 4.31058C42.9857 4.04992 43.6771 6.4805 42.8427 9.28613ZM45.1657 14.2171C45.1657 14.2171 46.7627 10.3394 47.1254 8.09952C47.6201 5.10118 46.1189 0.75293 40.3205 0.75293C34.5551 0.75293 32.0516 4.90446 31.0963 9.41753C30.1411 13.9633 31.3926 17.95 37.1253 17.9173L41.6477 17.9005L45.8745 17.8851C46.0372 17.8838 46.2037 17.7546 46.2452 17.5974L46.9814 14.7889C47.0224 14.6313 46.9229 14.5017 46.7602 14.5008L46.0544 14.4966L45.349 14.4924C45.2105 14.4914 45.1312 14.4019 45.148 14.283C45.1511 14.2616 45.1559 14.2396 45.1653 14.2168L45.1657 14.2171Z" fill="#131B28"/>
<path d="M73.7065 11.6217C73.7065 11.7289 73.6196 11.8161 73.5121 11.8161C73.4048 11.8161 73.3176 11.729 73.3176 11.6217C73.3176 11.5145 73.4048 11.4277 73.5121 11.4277C73.6195 11.4277 73.7065 11.5145 73.7065 11.6217Z" fill="#131B28"/>
<path d="M1.14183 6.57987C-0.450067 8.86792 -0.251896 11.8447 0.964173 14.2758C0.993085 14.3341 1.02339 14.3914 1.05323 14.4488C1.07236 14.4851 1.0903 14.5224 1.11012 14.5583C1.12132 14.5798 1.1339 14.6008 1.14556 14.6213C1.1663 14.66 1.18752 14.6968 1.20897 14.7346C1.24674 14.8013 1.28544 14.8675 1.32507 14.9337C1.34699 14.9701 1.36867 15.0064 1.39129 15.0428C1.43512 15.1137 1.48012 15.1836 1.52604 15.2536C1.54516 15.2834 1.56381 15.3132 1.58339 15.3422C1.64681 15.4368 1.71162 15.531 1.77853 15.6238C1.78019 15.6262 1.78201 15.6289 1.78411 15.6312C1.79462 15.6462 1.80627 15.6606 1.81699 15.6755C1.87481 15.7553 1.93449 15.8341 1.99487 15.9119C2.01703 15.9404 2.0394 15.9688 2.06179 15.9973C2.11564 16.0649 2.17043 16.132 2.22615 16.1992C2.2469 16.2243 2.26788 16.2495 2.28886 16.2742C2.3637 16.3624 2.43994 16.45 2.5178 16.5358C2.51924 16.5372 2.52107 16.5391 2.52246 16.5405C2.52573 16.5442 2.52852 16.5465 2.53131 16.5503C2.60732 16.6333 2.68519 16.7144 2.764 16.7955C2.78847 16.8207 2.81342 16.8459 2.8386 16.8706C2.89968 16.9321 2.9617 16.9928 3.02441 17.0529C3.04982 17.0772 3.075 17.1019 3.10042 17.1252C3.18411 17.204 3.26874 17.2814 3.35501 17.3569C3.35644 17.3583 3.35756 17.3593 3.35897 17.3602C3.37365 17.3733 3.38881 17.3854 3.40327 17.398C3.47927 17.4637 3.55667 17.529 3.63454 17.5933C3.66624 17.619 3.69842 17.6442 3.73036 17.6698C3.794 17.7206 3.85835 17.771 3.92316 17.8204C3.95743 17.8465 3.9917 17.8726 4.02621 17.8988C4.09778 17.9514 4.16982 18.0032 4.24256 18.054C4.26914 18.0732 4.29479 18.0918 4.32136 18.11C4.32881 18.1151 4.33559 18.1202 4.34304 18.1254C4.41205 18.1729 4.48269 18.2186 4.55311 18.2643C4.58342 18.2844 4.61349 18.3054 4.64404 18.3249C4.75221 18.3935 4.86203 18.4611 4.973 18.5264C5.00307 18.5436 5.03361 18.5604 5.06392 18.5777C5.14552 18.6248 5.22758 18.6709 5.31081 18.7162C5.35581 18.7404 5.40197 18.7633 5.44743 18.7866C5.50618 18.8173 5.56447 18.8486 5.62415 18.8784C5.63766 18.885 5.65166 18.8915 5.66495 18.898C5.68897 18.9097 5.71321 18.9208 5.73722 18.933C5.82978 18.9773 5.92304 19.0206 6.01723 19.0626C6.03729 19.0715 6.05663 19.0803 6.07645 19.0892C6.1844 19.1363 6.29326 19.1815 6.40308 19.2249C6.42943 19.2356 6.456 19.2459 6.48258 19.2561C6.58423 19.2953 6.68728 19.334 6.7908 19.3703C6.80386 19.375 6.81645 19.3792 6.8295 19.3838C6.94304 19.4235 7.05775 19.4603 7.17315 19.4962C7.20066 19.5041 7.2284 19.513 7.25615 19.5209C7.37365 19.5564 7.48976 19.5988 7.61098 19.6212C15.3098 21.0252 17.546 14.9947 17.546 14.9947C15.6679 17.4416 12.334 18.087 9.17519 17.3685C9.05558 17.3414 8.93949 17.3041 8.82268 17.2696C8.79307 17.2608 8.76392 17.2519 8.73478 17.243C8.62078 17.2081 8.5077 17.1712 8.39534 17.1325C8.37994 17.127 8.36433 17.1213 8.34871 17.1157C8.24799 17.0803 8.14844 17.043 8.04935 17.0048C8.02137 16.9936 7.99339 16.9829 7.96542 16.9717C7.85678 16.9288 7.74884 16.884 7.64229 16.8374C7.62037 16.828 7.59939 16.8183 7.5777 16.8089C7.48608 16.7674 7.39539 16.7255 7.30516 16.6821C7.27905 16.6695 7.25294 16.6574 7.22636 16.6443C7.1555 16.6098 7.08541 16.5729 7.01551 16.537C6.96872 16.5124 6.92116 16.4891 6.87475 16.4633C6.78938 16.4176 6.70553 16.3701 6.62207 16.3216C6.5938 16.3057 6.56516 16.2904 6.5367 16.274C6.42573 16.2087 6.31611 16.1411 6.20762 16.0725C6.17764 16.0534 6.14842 16.033 6.11881 16.0133C6.04013 15.9625 5.96182 15.9107 5.88466 15.8576C5.85907 15.8403 5.83443 15.8217 5.80922 15.8046C5.73474 15.7518 5.66101 15.6986 5.58787 15.6445C5.55463 15.6199 5.52197 15.595 5.4897 15.5704C5.42266 15.519 5.356 15.4673 5.28992 15.4142C5.26008 15.3904 5.23024 15.3666 5.20086 15.3428C5.11693 15.2738 5.03393 15.2043 4.9521 15.133C4.94348 15.1256 4.93415 15.1181 4.92482 15.1102C4.83623 15.0323 4.74927 14.9526 4.66324 14.8724C4.6383 14.8486 4.61405 14.8253 4.58957 14.8015C4.52592 14.7409 4.46321 14.6798 4.40166 14.6173C4.37695 14.5926 4.35223 14.5683 4.32798 14.5436C4.24965 14.4634 4.17271 14.3823 4.0974 14.2998C4.09368 14.2956 4.08972 14.2919 4.08599 14.2876C4.00626 14.2005 3.92839 14.1114 3.85214 14.0214C3.8314 13.9967 3.81135 13.9729 3.79083 13.9487C3.73394 13.8801 3.67752 13.8107 3.6225 13.7407C3.60187 13.7155 3.58125 13.6897 3.56081 13.6637C3.49454 13.5778 3.42979 13.492 3.36638 13.4049C1.61266 11.0128 0.982648 7.71347 2.38432 5.00391" fill="#0868AC"/>
<path d="M6.08341 4.65212C4.93217 6.30882 4.99464 8.52653 5.8927 10.2787C6.04331 10.5724 6.21257 10.8573 6.40188 11.1287C6.5744 11.3758 6.76558 11.6701 6.99452 11.8687C7.07752 11.9601 7.16424 12.0491 7.25283 12.1368C7.2752 12.1596 7.29806 12.1816 7.32091 12.2039C7.40694 12.2874 7.49436 12.3695 7.58482 12.4492C7.58854 12.452 7.59181 12.4557 7.59554 12.4586C7.59649 12.4595 7.59745 12.4599 7.59809 12.4609C7.69811 12.5486 7.80138 12.633 7.90631 12.716C7.92963 12.7337 7.9527 12.7524 7.97625 12.7705C8.0814 12.8512 8.18865 12.9305 8.29868 13.006C8.30195 13.0084 8.30474 13.0107 8.30801 13.013C8.35651 13.0466 8.40593 13.0778 8.45512 13.11C8.47866 13.1254 8.50105 13.1417 8.52483 13.1561C8.6034 13.2065 8.6829 13.2555 8.7638 13.3026C8.77524 13.3096 8.78641 13.3156 8.79761 13.3221C8.86732 13.3622 8.93796 13.4019 9.00884 13.4401C9.03355 13.4541 9.05873 13.4662 9.08391 13.4793C9.13287 13.5049 9.18183 13.531 9.23172 13.5557C9.23917 13.5595 9.24688 13.5627 9.25409 13.566C9.35551 13.6159 9.45786 13.6639 9.56231 13.7096C9.58468 13.7194 9.60777 13.7283 9.63038 13.7376C9.71385 13.773 9.79825 13.8076 9.8831 13.8402C9.919 13.8537 9.95537 13.8668 9.99128 13.8798C10.0682 13.9083 10.1454 13.9344 10.2233 13.9605C10.2585 13.9717 10.293 13.9833 10.3282 13.9941C10.4389 14.0286 10.5482 14.0719 10.6637 14.0911C16.6078 15.0758 17.9801 10.4993 17.9801 10.4993C16.743 12.281 14.3475 13.131 11.7911 12.4675C11.6775 12.4376 11.5656 12.405 11.4544 12.37C11.4204 12.3597 11.387 12.3486 11.3532 12.3374C11.2742 12.3117 11.1956 12.2847 11.1178 12.2562C11.0821 12.2432 11.0464 12.2301 11.0114 12.2166C10.9261 12.184 10.8417 12.1499 10.758 12.1145C10.7352 12.1047 10.7121 12.0958 10.6897 12.0856C10.5848 12.0399 10.4815 11.9918 10.3796 11.9415C10.3272 11.9158 10.2757 11.8888 10.2241 11.8622C10.1943 11.8468 10.1642 11.8314 10.1344 11.8161C10.0682 11.7802 10.0024 11.7429 9.93759 11.7051C9.92222 11.6962 9.90612 11.6878 9.8905 11.6785C9.81006 11.6314 9.7308 11.5829 9.65222 11.533C9.62797 11.5176 9.60466 11.5009 9.58041 11.485C9.52865 11.4514 9.4769 11.4174 9.42607 11.3829C9.3165 11.3073 9.20995 11.2281 9.10481 11.1479C9.08057 11.1287 9.05632 11.1101 9.03254 11.091C7.91353 10.2075 7.02658 9.00023 6.60488 7.63122C6.16293 6.2114 6.25823 4.6176 7.02391 3.32422" fill="#0868AC"/>
<path d="M10.2395 3.21201C9.56083 4.21079 9.49416 5.45117 9.9651 6.55432C10.4617 7.72516 11.4794 8.64374 12.667 9.0792C12.716 9.0974 12.7649 9.1137 12.8146 9.13048C12.8363 9.13702 12.8577 9.14448 12.8797 9.15099C12.9496 9.17291 13.0191 9.19855 13.0913 9.21208C16.3735 9.84622 17.2637 7.52786 17.5007 7.18664C16.7209 8.30944 15.4103 8.57895 13.8024 8.18868C13.6754 8.15774 13.5358 8.1119 13.4134 8.06855C13.2564 8.01259 13.1017 7.9488 12.9513 7.8766C12.6658 7.73947 12.3937 7.57293 12.1414 7.38232C10.7025 6.29063 9.80862 4.20789 10.7475 2.51172" fill="#0868AC"/>
<path d="M47.2049 22.6653L46.2588 24.8201H45.2143L45.2999 22.8622L44.531 24.8201H43.5196L43.493 22.6653L43.6047 22.1333H44.3209L44.1829 24.2615L44.9779 22.1333H45.9765L45.9042 24.288L46.6927 22.1333H47.3166L47.2049 22.6653Z" fill="#0868AC"/>
<path d="M48.8531 23.3031C48.9452 22.8825 48.9189 22.8037 48.7021 22.8037H48.3736L48.1633 23.7894L47.8413 24.8203H47.2305L47.7296 22.4819L47.8021 22.1401H48.3605L48.4328 22.2977C48.4328 22.2977 48.7547 22.1074 49.0697 22.1074C49.74 22.1074 49.6875 22.6129 49.5428 23.303L48.8531 23.3031Z" fill="#0868AC"/>
<path d="M50.8375 21.798C50.5685 21.798 50.3976 21.7192 50.4631 21.3909C50.5354 21.0622 50.7457 20.9834 51.0082 20.9834C51.2714 20.9834 51.4486 21.0622 51.3763 21.3909C51.3106 21.7127 51.1005 21.798 50.8375 21.798ZM50.5487 24.82H49.9439L50.0623 23.769L50.2726 22.7968L49.8523 22.7045L49.9705 22.1333H51.1199L50.5487 24.82Z" fill="#0868AC"/>
<path d="M53.1694 22.7035L52.414 22.7958L52.197 23.8207C52.1378 24.1033 52.1378 24.1821 52.3877 24.1821H52.8934L52.7882 24.7206C52.7882 24.7206 52.3287 24.8586 52.1312 24.8586C51.3561 24.8586 51.3626 24.4315 51.5008 23.7941L51.7111 22.7893L51.2905 22.6974L51.4153 22.1258H51.8557L52.1054 21.4487H52.7031L52.5584 22.1258H53.2941L53.1694 22.7035Z" fill="#0868AC"/>
<path d="M54.7394 22.7377C54.3848 22.7377 54.2007 22.9219 54.1286 23.2502L55.1402 23.1648C55.1861 22.9415 55.1402 22.7377 54.7394 22.7377ZM54.0302 23.736C53.9838 24.0647 54.1088 24.1762 54.5291 24.1762H55.5867L55.4817 24.6756C55.4817 24.6756 54.8446 24.8528 54.3715 24.8528C53.1956 24.8528 53.1823 24.1897 53.3336 23.48C53.4847 22.7834 53.7539 22.0942 54.8903 22.0942C55.9877 22.0942 56.0403 22.7573 55.7708 23.736L54.0302 23.736Z" fill="#0868AC"/>
<path d="M58.181 24.8193H57.5769L57.6951 23.7683L58.1222 21.7711L57.7014 21.6727L57.8264 21.1011H58.9762L58.181 24.8193Z" fill="#0868AC"/>
<path d="M60.364 22.7377C60.0089 22.7377 59.8252 22.9219 59.7527 23.2502L60.7645 23.1648C60.8102 22.9415 60.7645 22.7377 60.364 22.7377ZM59.6543 23.736C59.6084 24.0647 59.7334 24.1762 60.1535 24.1762H61.2112L61.1061 24.6756C61.1061 24.6756 60.4687 24.8528 59.9956 24.8528C58.8197 24.8528 58.8068 24.1897 58.9579 23.48C59.1092 22.7834 59.3785 22.0942 60.5148 22.0942C61.612 22.0942 61.6645 22.7573 61.3954 23.736L59.6543 23.736Z" fill="#0868AC"/>
<path d="M64.1667 22.7699C64.1667 22.7699 63.398 22.7765 63.1879 22.7765C62.741 22.7765 62.6951 22.9141 62.6624 23.0586L62.6359 23.1901L64.055 23.2955C64.055 23.2955 64.0615 23.7487 64.0023 24.0047C63.917 24.4318 63.4768 24.865 62.682 24.865C62.2876 24.865 61.6504 24.7144 61.6504 24.7144L61.7621 24.1954H62.741C63.1747 24.1954 63.2339 24.077 63.2605 23.959L63.2931 23.7883L61.9003 23.6829C61.9003 23.6829 61.8478 23.3346 61.9199 22.9868C62.0253 22.5135 62.4584 22.1064 63.2534 22.1064C63.6477 22.1064 64.2849 22.2505 64.2849 22.2505L64.1667 22.7699Z" fill="#0868AC"/>
<path d="M66.8079 22.7699C66.8079 22.7699 66.0395 22.7765 65.8292 22.7765C65.3825 22.7765 65.3366 22.9141 65.3037 23.0586L65.2771 23.1901L66.6965 23.2955C66.6965 23.2955 66.703 23.7487 66.6438 24.0047C66.5585 24.4318 66.1183 24.865 65.3233 24.865C64.9293 24.865 64.2919 24.7144 64.2919 24.7144L64.4035 24.1954H65.3825C65.8159 24.1954 65.8751 24.077 65.9017 23.959L65.9343 23.7883L64.5416 23.6829C64.5416 23.6829 64.4891 23.3346 64.5611 22.9868C64.6665 22.5135 65.0997 22.1064 65.8949 22.1064C66.2889 22.1064 66.9261 22.2505 66.9261 22.2505L66.8079 22.7699Z" fill="#0868AC"/>
<path d="M67.635 25.2474H67.1098L67.1293 24.8529C66.9386 24.8404 66.8403 24.7023 66.8862 24.472C66.9585 24.1437 67.1622 24.0649 67.4315 24.0649C67.6942 24.0649 67.8712 24.1437 67.7994 24.472L67.635 25.2474Z" fill="#0868AC"/>
<path d="M71.1492 22.797C70.7552 22.797 70.6174 23.0334 70.5253 23.467C70.4333 23.9007 70.4596 24.1567 70.8536 24.1567H71.3989L71.7013 22.797H71.1492ZM72.0494 24.4719L71.9769 24.8202L71.4255 24.8137L71.3465 24.643C71.3465 24.643 70.8601 24.8528 70.5321 24.8528C69.6909 24.8528 69.6515 24.1632 69.8026 23.467C69.9537 22.7573 70.2822 22.0873 71.1166 22.0873C71.419 22.0873 71.826 22.2384 71.826 22.2384L72.1611 21.1021H72.7656L72.0494 24.4719Z" fill="#0868AC"/>
<path d="M74.2241 22.7704C73.7119 22.7704 73.5473 23.059 73.4554 23.4796C73.3701 23.9067 73.4097 24.1958 73.9151 24.1958C74.4409 24.1958 74.5987 23.9132 74.6903 23.4796C74.7826 23.072 74.7561 22.7704 74.2241 22.7704ZM73.7776 24.8594C72.6935 24.8594 72.6079 24.1828 72.7525 23.4797C72.9038 22.777 73.2848 22.1069 74.3689 22.1069C75.446 22.1069 75.5448 22.777 75.3933 23.4797C75.2424 24.1959 74.8613 24.8594 73.7776 24.8594Z" fill="#0868AC"/>
<path d="M79.927 24.8194L80.0454 23.7814L80.1044 23.4858C80.19 23.0918 80.2424 22.8027 79.8284 22.8027H79.5066C79.5199 23.0065 79.4803 23.2363 79.4278 23.4793L79.1455 24.8194H78.5344L78.6526 23.7814L78.7116 23.4858C78.7972 23.0918 78.8494 22.8027 78.436 22.8027H78.173L77.7394 24.8194H77.0363L77.6079 22.1327H78.1598L78.2451 22.2968C78.2451 22.2968 78.6198 22.0996 78.9219 22.0996C79.1518 22.0996 79.3227 22.205 79.3819 22.336C79.5131 22.2637 79.8878 22.0996 80.1573 22.0996C80.9976 22.0996 80.9717 22.7827 80.8204 23.4793L80.538 24.8194L79.927 24.8194Z" fill="#0868AC"/>
<path d="M82.7192 22.7704C82.2066 22.7704 82.0424 23.059 81.9506 23.4796C81.8652 23.9067 81.9049 24.1958 82.4103 24.1958C82.9358 24.1958 83.0939 23.9132 83.1858 23.4796C83.2776 23.072 83.2513 22.7704 82.7192 22.7704ZM82.2725 24.8594C81.1882 24.8594 81.1031 24.1828 81.2477 23.4797C81.3987 22.777 81.7797 22.1069 82.8638 22.1069C83.9414 22.1069 84.0397 22.777 83.8884 23.4797C83.7376 24.1959 83.3564 24.8594 82.2725 24.8594Z" fill="#0868AC"/>
<path d="M85.714 23.3031C85.8058 22.8825 85.7797 22.8037 85.5631 22.8037H85.2344L85.0241 23.7894L84.7021 24.8203H84.0913L84.5905 22.4819L84.663 22.1401H85.2213L85.2934 22.2977C85.2934 22.2977 85.6153 22.1074 85.931 22.1074C86.6008 22.1074 86.5481 22.6129 86.4036 23.303L85.714 23.3031Z" fill="#0868AC"/>
<path d="M88.067 22.7377C87.7127 22.7377 87.5285 22.9219 87.4565 23.2502L88.4676 23.1648C88.514 22.9415 88.4676 22.7377 88.067 22.7377ZM87.3576 23.736C87.3119 24.0647 87.4364 24.1762 87.8568 24.1762H88.9145L88.8096 24.6756C88.8096 24.6756 88.1722 24.8528 87.6994 24.8528C86.5234 24.8528 86.5104 24.1897 86.661 23.48C86.8123 22.7834 87.0818 22.0942 88.2181 22.0942C89.315 22.0942 89.368 22.7573 89.0985 23.736L87.3576 23.736Z" fill="#0868AC"/>
<path d="M89.6885 24.8593C89.4125 24.8593 89.2421 24.7805 89.3144 24.4588C89.3796 24.1296 89.5834 24.0513 89.8597 24.0513C90.1156 24.0513 90.2928 24.1296 90.2276 24.4588C90.1548 24.774 89.945 24.8593 89.6885 24.8593Z" fill="#0868AC"/>
</g>
<defs>
<clipPath id="clip0_3425_292">
<rect width="100" height="24.4944" fill="white" transform="translate(0 0.75293)"/>
</clipPath>
</defs>
</svg>
