<svg width="47" height="45" viewBox="0 0 47 45" fill="none" xmlns="http://www.w3.org/2000/svg">
<path d="M43.2143 0H3.77545C1.9683 0 0.5 1.45647 0.5 3.24442V41.7556C0.5 43.5435 1.9683 45 3.77545 45H43.2143C45.0214 45 46.5 43.5435 46.5 41.7556V3.24442C46.5 1.45647 45.0214 0 43.2143 0ZM14.4027 38.5714H7.58482V17.096H14.4129V38.5714H14.4027ZM10.9937 14.1629C8.8067 14.1629 7.04063 12.4252 7.04063 10.2958C7.04063 8.16629 8.8067 6.42857 10.9937 6.42857C13.1808 6.42857 14.9469 8.16629 14.9469 10.2958C14.9469 12.4252 13.1808 14.1629 10.9937 14.1629ZM39.9594 38.5714H33.1415V28.125C33.1415 25.6339 33.0902 22.4297 29.5991 22.4297C26.108 22.4297 25.5022 25.1417 25.5022 27.9442V38.5714H18.6844V17.096H25.225V20.029H25.3174C26.2313 18.3415 28.4594 16.5636 31.7759 16.5636C38.6759 16.5636 39.9594 21.0134 39.9594 26.7991V38.5714Z" fill="#030000"/>
</svg>
