<svg width="30" height="31" viewBox="0 0 30 31" fill="none" xmlns="http://www.w3.org/2000/svg">
<path d="M27.8571 0.5H2.13616C0.957589 0.5 0 1.47098 0 2.66295V28.3371C0 29.529 0.957589 30.5 2.13616 30.5H27.8571C29.0357 30.5 30 29.529 30 28.3371V2.66295C30 1.47098 29.0357 0.5 27.8571 0.5ZM9.06696 26.2143H4.62054V11.8973H9.07366V26.2143H9.06696ZM6.84375 9.94196C5.41741 9.94196 4.26562 8.78348 4.26562 7.36384C4.26562 5.9442 5.41741 4.78571 6.84375 4.78571C8.27009 4.78571 9.42187 5.9442 9.42187 7.36384C9.42187 8.78348 8.27009 9.94196 6.84375 9.94196ZM25.7344 26.2143H21.2879V19.25C21.2879 17.5893 21.2545 15.4531 18.9777 15.4531C16.7009 15.4531 16.3058 17.2612 16.3058 19.1295V26.2143H11.8594V11.8973H16.125V13.8527H16.1853C16.7812 12.7277 18.2344 11.5424 20.3973 11.5424C24.8973 11.5424 25.7344 14.5089 25.7344 18.3661V26.2143Z" fill="#030000"/>
</svg>
