<svg width="101" height="82" viewBox="0 0 101 82" fill="none" xmlns="http://www.w3.org/2000/svg">
<g clip-path="url(#clip0_3425_205)">
<path d="M18.3958 67.5103L22.0295 81.5641H19.2865L16.8662 71.4408L12.3032 81.5641H9.98614L5.4489 71.4989L2.95762 81.5641H0.272705L3.8741 67.5103H6.24921L11.1543 78.3919L16.0401 67.5103H18.3958Z" fill="#003545"/>
<path d="M32.3916 72.9418V71.3057H35.041V81.5645H32.3916V79.9123C31.6913 81.0998 30.252 81.7807 28.4997 81.7807C24.837 81.7807 22.7943 79.1991 22.7943 76.2302C22.7943 73.3678 24.7305 71.0669 28.1093 71.0669C30.0358 71.0895 31.6332 71.7349 32.3916 72.9418ZM25.6148 76.3689C25.6148 78.2568 26.8023 79.8735 29.1 79.8735C31.317 79.8735 32.5239 78.2955 32.5239 76.427C32.5239 74.5586 31.2782 72.9612 28.9741 72.9612C26.7668 72.9612 25.618 74.5553 25.618 76.3689H25.6148Z" fill="#003545"/>
<path d="M41.0143 81.5643H38.3681V71.3055H41.0143V73.6032C41.3169 72.8681 41.8286 72.2381 42.4861 71.7912C43.1435 71.3443 43.9176 71.1002 44.7125 71.0893C45.276 71.0816 45.8364 71.1733 46.368 71.3604L45.8032 73.2966C45.346 73.1753 44.8757 73.1103 44.4027 73.103C42.4923 73.103 41.0143 74.5423 41.0143 76.6528V81.5643Z" fill="#003545"/>
<path d="M47.6911 68.5981C47.6859 68.412 47.7193 68.2268 47.7894 68.0543C47.8594 67.8818 47.9645 67.7257 48.0979 67.5959C48.2314 67.4661 48.3903 67.3654 48.5647 67.3002C48.7391 67.2349 48.9251 67.2066 49.111 67.2169C49.3004 67.2108 49.4891 67.2432 49.6657 67.3123C49.8422 67.3814 50.0028 67.4857 50.1377 67.6188C50.2727 67.7519 50.3791 67.9111 50.4506 68.0867C50.5221 68.2623 50.5571 68.4505 50.5535 68.6401C50.5572 68.8269 50.5217 69.0124 50.4495 69.1846C50.3772 69.3569 50.2697 69.5122 50.1338 69.6405C49.998 69.7687 49.8368 69.8671 49.6606 69.9294C49.4845 69.9916 49.2972 70.0163 49.111 70.0019C48.9237 70.01 48.7368 69.9793 48.5619 69.9118C48.3871 69.8444 48.228 69.7415 48.0948 69.6098C47.9615 69.478 47.8568 69.3201 47.7874 69.146C47.7179 68.972 47.6851 68.7854 47.6911 68.5981ZM47.8072 71.3056H50.4566V78.802C50.4566 79.2667 50.5535 79.5991 50.9407 79.5991C51.111 79.5949 51.2805 79.5755 51.4473 79.541L51.8572 81.4773C51.2995 81.6972 50.7044 81.8068 50.1049 81.8C48.9948 81.8 47.8072 81.4773 47.8072 78.957V71.3056Z" fill="#003545"/>
<path d="M62.2903 72.9418V71.3057H64.9494V81.5645H62.3V79.9123C61.5997 81.0998 60.1604 81.7807 58.4081 81.7807C54.7486 81.7807 52.7027 79.1991 52.7027 76.2302C52.7027 73.3678 54.6389 71.0669 58.0177 71.0669C59.9345 71.0895 61.5319 71.7349 62.2903 72.9418ZM55.5135 76.3689C55.5135 78.2568 56.701 79.8735 58.9987 79.8735C61.2189 79.8735 62.4258 78.2955 62.4258 76.427C62.4258 74.5586 61.1769 72.9612 58.8761 72.9612C56.6655 72.9612 55.5167 74.5553 55.5167 76.3689H55.5135Z" fill="#003545"/>
<path d="M69.0057 67.5103H75.3534C80.6877 67.5103 83.3532 70.4501 83.3145 74.5356C83.3532 78.7824 80.4102 81.5641 75.8213 81.5641H69.0057V67.5103ZM70.758 68.7559V80.3378H75.5986C79.8422 80.3378 81.4589 77.4754 81.4589 74.4968C81.4589 71.131 79.4356 68.7559 75.5986 68.7559H70.758Z" fill="#003545"/>
<path d="M94.1381 81.5641H86.0704V67.5103H93.3474C96.1292 67.5103 98.7786 68.033 98.7398 71.1504C98.7398 73.348 97.3748 73.9547 95.9355 74.187C97.9783 74.3613 99.2078 75.665 99.2078 77.7691C99.2207 80.9219 96.4551 81.5641 94.1381 81.5641ZM93.5346 73.6417C96.3196 73.6417 96.9424 72.5703 96.9424 71.2085C96.9424 69.1625 95.6967 68.6978 93.5346 68.6978H87.7517V73.6417H93.5346ZM93.6121 74.8292H87.7517V80.3765H93.8638C95.5773 80.3765 97.3877 79.8118 97.3877 77.6529C97.3877 75.1616 95.3063 74.8292 93.6121 74.8292Z" fill="#003545"/>
<path d="M99.8274 0.52953C99.5702 0.317658 99.2437 0.208454 98.9109 0.22296C97.9976 0.22296 96.8165 0.842554 96.1808 1.17494L95.9291 1.30402C94.8627 1.82027 93.7018 2.11241 92.5181 2.16242C91.3047 2.20114 90.2591 2.27214 88.8973 2.41413C80.8297 3.24348 77.2315 9.42652 73.7657 15.4063C71.8778 18.6591 69.9287 22.0379 67.2567 24.6195C66.7038 25.1556 66.1163 25.6547 65.4979 26.1136C62.7324 28.1693 59.26 29.6376 56.559 30.6767C53.958 31.6706 51.1182 32.5645 48.3752 33.4294C45.8613 34.22 43.4894 34.9687 41.3079 35.7787C40.3237 36.1433 39.4879 36.4241 38.7489 36.6693C36.761 37.3147 35.3282 37.8085 33.2338 39.251C32.4174 39.8092 31.5977 40.4127 31.0427 40.8645C29.3802 42.191 27.9087 43.7406 26.67 45.4695C25.6048 47.0643 24.3738 48.5419 22.9976 49.8777C22.5555 50.3101 21.7713 50.5231 20.5967 50.5231C19.222 50.5231 17.5536 50.2391 15.7884 49.939C13.9683 49.6163 12.0869 49.3097 10.4734 49.3097C9.16323 49.3097 8.15962 49.5227 7.41094 49.9551C7.41094 49.9551 6.14916 50.6909 5.6167 51.6429L6.13948 51.8784C6.95018 52.318 7.70075 52.8603 8.37261 53.492C9.07358 54.1394 9.85439 54.6947 10.6961 55.1442C10.9648 55.2427 11.2091 55.3979 11.4125 55.5992C11.1931 55.9219 10.8703 56.3382 10.5315 56.7836C8.66949 59.22 7.58198 60.7593 8.2048 61.5983C8.50331 61.7534 8.83672 61.829 9.17291 61.8178C13.2326 61.8178 15.414 60.7625 18.1732 59.4265C18.9735 59.0393 19.7867 58.6423 20.7548 58.2325C22.3683 57.5322 24.1045 56.4157 25.9471 55.2346C28.3578 53.663 30.8781 52.0495 33.3242 51.2718C35.3345 50.6587 37.4285 50.3647 39.5298 50.4004C42.1115 50.4004 44.8287 50.7457 47.449 51.0814C49.4014 51.3331 51.4248 51.5912 53.4094 51.7106C54.1807 51.7558 54.8938 51.7784 55.5877 51.7784C56.5158 51.7811 57.4434 51.7326 58.3662 51.6332L58.5888 51.5557C59.9797 50.7006 60.6315 48.8644 61.264 47.0895C61.6707 45.9471 62.0127 44.9209 62.5549 44.269C62.5868 44.2372 62.6214 44.2081 62.6581 44.1819C62.6835 44.1678 62.713 44.1626 62.7417 44.1673C62.7704 44.172 62.7967 44.1862 62.8163 44.2077C62.8163 44.2077 62.8163 44.2239 62.8163 44.2594C62.4936 51.2008 59.6989 55.6089 56.872 59.5266L54.9842 61.5499C54.9842 61.5499 57.6272 61.5499 59.131 60.9691C64.617 59.3297 68.7573 55.7154 71.7713 49.9519C72.5146 48.4724 73.1793 46.9546 73.7624 45.405C73.8141 45.2759 74.2884 45.0371 74.2433 45.7051C74.2271 45.9019 74.2142 46.1214 74.1981 46.3505C74.1981 46.486 74.1981 46.6248 74.1723 46.7636C74.0948 47.7317 73.8657 49.7776 73.8657 49.7776L75.5599 48.8708C79.6454 46.2892 82.795 41.0807 85.183 32.9776C86.1769 29.6021 86.9062 26.2492 87.5484 23.2964C88.3165 19.7466 88.978 16.7035 89.7364 15.5224C90.9271 13.6701 92.744 12.418 94.5027 11.2014C94.7415 11.0368 94.9835 10.8787 95.2191 10.7044C97.4296 9.15222 99.6273 7.36121 100.111 4.0212V3.94698C100.463 1.45569 100.166 0.819965 99.8274 0.52953Z" fill="#003545"/>
</g>
<defs>
<clipPath id="clip0_3425_205">
<rect width="100" height="81.5541" fill="white" transform="translate(0.272705 0.223145)"/>
</clipPath>
</defs>
</svg>
