<svg width="148" height="30" viewBox="0 0 148 30" fill="none" xmlns="http://www.w3.org/2000/svg">
<g clip-path="url(#clip0_3425_856)">
<path d="M98.3858 0.012207H124.165V4.7623H113.939V29.7519H108.825V4.7623H98.3858V0.012207Z" fill="black"/>
<path d="M55.9891 0.012207V4.7623H35.3255V12.4038H51.9431V17.1538H35.3255V25.0018H55.9891V29.7519H30.2123V4.7623H30.2101V0.012207H55.9891Z" fill="black"/>
<path d="M68.8613 0.0249023H62.1697L86.1375 29.7646H92.8486L80.8632 14.905L92.8294 0.0475919L86.1375 0.0579156L77.5129 10.7512L68.8613 0.0249023Z" fill="black"/>
<path d="M75.7279 21.2679L72.3769 17.1084L62.1506 29.787H68.8613L75.7279 21.2679Z" fill="black"/>
<path fill-rule="evenodd" clip-rule="evenodd" d="M30.3915 29.7521L6.39146 0H0V29.7397H5.11317V6.35685L23.968 29.7521H30.3915Z" fill="black"/>
<path d="M125.314 29.5705C124.94 29.5705 124.621 29.441 124.355 29.182C124.088 28.923 123.956 28.6094 123.959 28.2379C123.956 27.8767 124.088 27.5665 124.355 27.3075C124.621 27.0485 124.94 26.9189 125.314 26.9189C125.675 26.9189 125.99 27.0485 126.256 27.3075C126.527 27.5665 126.662 27.8767 126.665 28.2379C126.662 28.4833 126.599 28.7082 126.475 28.9093C126.347 29.1138 126.184 29.274 125.979 29.3899C125.778 29.5092 125.557 29.5705 125.314 29.5705Z" fill="black"/>
<path d="M134.041 17.042H136.307V25.7567C136.304 26.5577 136.13 27.2427 135.791 27.8187C135.448 28.3947 134.973 28.8343 134.364 29.1444C133.757 29.4512 133.047 29.608 132.24 29.608C131.502 29.608 130.84 29.475 130.251 29.216C129.662 28.957 129.195 28.5685 128.852 28.0572C128.505 27.546 128.335 26.9087 128.335 26.1453H130.605C130.608 26.4793 130.684 26.7689 130.83 27.0109C130.975 27.2529 131.176 27.4369 131.433 27.5664C131.692 27.696 131.99 27.7607 132.326 27.7607C132.69 27.7607 133.002 27.6857 133.255 27.5324C133.508 27.3824 133.702 27.1575 133.837 26.8575C133.969 26.5611 134.038 26.193 134.041 25.7567V17.042Z" fill="black"/>
<path d="M145.63 20.4502C145.575 19.9219 145.332 19.5095 144.91 19.2164C144.483 18.9199 143.933 18.7734 143.257 18.7734C142.782 18.7734 142.374 18.845 142.034 18.9847C141.695 19.1278 141.431 19.3187 141.251 19.5606C141.071 19.8026 140.981 20.0787 140.974 20.3889C140.974 20.6479 141.036 20.8728 141.157 21.0603C141.279 21.2511 141.441 21.4113 141.653 21.5408C141.861 21.6737 142.093 21.7828 142.346 21.8714C142.602 21.96 142.859 22.035 143.115 22.0963L144.296 22.386C144.771 22.4951 145.232 22.6417 145.672 22.8291C146.112 23.0132 146.51 23.2483 146.86 23.5312C147.21 23.8141 147.487 24.1549 147.692 24.5537C147.896 24.9524 148 25.4193 148 25.9578C148 26.6837 147.813 27.3211 147.435 27.8732C147.058 28.4219 146.514 28.8513 145.8 29.1615C145.09 29.4683 144.231 29.625 143.219 29.625C142.242 29.625 141.39 29.4751 140.673 29.1751C139.952 28.8786 139.39 28.4424 138.985 27.8698C138.58 27.2972 138.362 26.5985 138.33 25.7772H140.576C140.607 26.2066 140.745 26.5645 140.981 26.8542C141.22 27.1404 141.532 27.3518 141.913 27.4949C142.298 27.6346 142.727 27.7062 143.202 27.7062C143.697 27.7062 144.134 27.6312 144.511 27.4846C144.885 27.3381 145.18 27.1336 145.391 26.8678C145.606 26.6053 145.714 26.2952 145.717 25.9408C145.714 25.617 145.616 25.3477 145.429 25.1364C145.239 24.9251 144.975 24.7479 144.639 24.6048C144.3 24.4616 143.905 24.3321 143.454 24.2196L142.02 23.8584C140.984 23.5959 140.163 23.1972 139.564 22.6621C138.961 22.127 138.663 21.4181 138.663 20.5286C138.663 19.7993 138.864 19.1585 139.27 18.6098C139.671 18.0611 140.222 17.635 140.919 17.3317C141.618 17.025 142.408 16.875 143.288 16.875C144.182 16.875 144.965 17.025 145.641 17.3317C146.316 17.635 146.846 18.0577 147.231 18.5961C147.615 19.1346 147.816 19.7515 147.827 20.4502H145.63Z" fill="black"/>
</g>
<defs>
<clipPath id="clip0_3425_856">
<rect width="148" height="30" fill="white"/>
</clipPath>
</defs>
</svg>
