<svg width="72" height="72" viewBox="0 0 72 72" fill="none" xmlns="http://www.w3.org/2000/svg">
<g clip-path="url(#clip0_3425_258)">
<path d="M0.00939941 0H60.4894C63.5447 0 66.4748 1.21371 68.6353 3.37413C70.7957 5.53455 72.0094 8.46471 72.0094 11.52V60.48C72.0094 63.5353 70.7957 66.4654 68.6353 68.6259C66.4748 70.7863 63.5447 72 60.4894 72H11.5294C8.4741 72 5.54395 70.7863 3.38353 68.6259C1.22311 66.4654 0.00939941 63.5353 0.00939941 60.48L0.00939941 0Z" fill="#663399"/>
<path d="M25.7926 66.2401C21.1681 66.2357 18.3147 63.6315 18.3694 58.8392V46.7151C18.3694 44.2858 19.0808 42.4383 20.5035 41.174C23.0588 38.7123 28.9873 38.5625 31.49 41.2114C33.0322 42.5715 33.614 45.35 33.4757 47.9427H28.1679C28.2082 46.9239 28.1542 45.3809 27.5552 44.7999C26.7769 43.7465 24.7213 43.8704 24.1777 44.9669C23.8436 45.5617 23.6765 46.4422 23.6765 47.6072V58.1321C23.6765 60.3389 24.4433 61.4549 25.9777 61.4794C26.6948 61.4794 27.2398 61.2188 27.6106 60.6982C28.1283 60.0805 28.2089 58.7125 28.1672 57.7232H33.475C33.8379 62.7682 30.86 66.3027 25.7919 66.2401H25.7926ZM42.6435 66.2401C37.5193 66.3106 35.2268 62.6645 35.3686 57.7232H40.3791C40.2401 59.8774 40.9803 61.8394 42.7544 61.7026C43.5457 61.7026 44.1029 61.4549 44.4248 60.9589C45.0368 60.0524 45.1513 57.4345 44.2765 56.4214C43.6652 55.4458 41.4663 54.5847 40.3049 54.0044C38.6468 53.2109 37.453 52.2692 36.7229 51.1777C35.0763 48.7556 35.2289 43.4391 37.5394 41.2849C39.7844 38.6266 45.6473 38.5042 47.8945 41.2294C49.2805 42.6341 49.886 45.3982 49.7686 47.942H44.9432C44.9842 46.8965 44.8856 45.2096 44.4795 44.5947C44.1951 44.0741 43.6565 43.8135 42.8653 43.8135C41.4548 43.8135 40.7499 44.6566 40.7499 46.3421C40.765 48.1321 41.4627 48.8665 43.0885 49.6145C45.1937 50.4325 47.8707 51.8293 48.8413 53.5198C51.7357 58.6707 49.7499 66.5389 42.6428 66.2386L42.6435 66.2401ZM58.8262 66.2401C53.702 66.3106 51.4095 62.6645 51.5513 57.7232H56.5618C56.4229 59.8774 57.163 61.8394 58.9371 61.7026C59.7284 61.7026 60.2857 61.4549 60.6075 60.9589C61.2195 60.0524 61.334 57.4345 60.4592 56.4214C59.8479 55.4458 57.649 54.5847 56.4877 54.0044C54.8295 53.2109 53.6357 52.2692 52.9057 51.1777C51.259 48.7556 51.4117 43.4391 53.7221 41.2849C55.9671 38.6266 61.8301 38.5042 64.0772 41.2294C65.4632 42.6341 66.0687 45.3982 65.9513 47.942H61.1259C61.167 46.8965 61.0683 45.2096 60.6622 44.5947C60.3778 44.0741 59.8393 43.8135 59.048 43.8135C57.6375 43.8135 56.9326 44.6566 56.9326 46.3421C56.9477 48.1321 57.6454 48.8665 59.2712 49.6145C61.3765 50.4325 64.0534 51.8293 65.024 53.5198C67.9184 58.6707 65.9326 66.5389 58.8255 66.2386L58.8262 66.2401Z" fill="white"/>
</g>
<defs>
<clipPath id="clip0_3425_258">
<rect width="72" height="72" fill="white" transform="translate(0.00939941)"/>
</clipPath>
</defs>
</svg>
