<svg width="100" height="80" viewBox="0 0 100 80" fill="none" xmlns="http://www.w3.org/2000/svg">
<path d="M50 16.3281C76.7812 16.3281 97.375 27.6094 97.375 40C97.375 52.3906 76.7656 63.6719 50 63.6719C23.2188 63.6719 2.625 52.3906 2.625 40C2.625 27.6094 23.2344 16.3281 50 16.3281ZM50 13.7031C22.3906 13.7031 0 25.4687 0 40C0 54.5312 22.3906 66.2969 50 66.2969C77.6094 66.2969 100 54.5312 100 40C100 25.4687 77.6094 13.7031 50 13.7031ZM34.0938 37.8906C32.8594 44.2187 28.5 43.5625 23.1406 43.5625L25.2812 32.5312C31.2188 32.5312 35.25 31.8906 34.0938 37.8906ZM15.2188 54.7344H20.9531L22.3125 47.7344C28.7344 47.7344 32.7188 48.2031 36.4062 44.75C40.4844 41 41.5469 34.3281 38.6406 30.9844C37.125 29.2344 34.6875 28.375 31.375 28.375H20.3281L15.2188 54.7344ZM44.2344 21.3594H49.9375L48.5781 28.3594C53.5 28.3594 58.0625 28 60.2656 30.0312C62.5781 32.1562 61.4688 34.875 58.9688 47.7031H53.1875C55.5938 35.2969 56.0469 34.2656 55.1719 33.3281C54.3281 32.4219 52.4063 32.6094 47.7656 32.6094L44.8281 47.7031H39.125L44.2344 21.3594ZM78.9062 37.8906C77.6562 44.3125 73.1719 43.5625 67.9531 43.5625L70.0938 32.5312C76.0625 32.5312 80.0625 31.8906 78.9062 37.8906ZM60.0312 54.7344H65.7812L67.1406 47.7344C73.8906 47.7344 77.625 48.125 81.2344 44.75C85.3125 41 86.375 34.3281 83.4688 30.9844C81.9531 29.2344 79.5156 28.375 76.2031 28.375H65.1562L60.0312 54.7344Z" fill="black"/>
</svg>
