<svg width="144" height="44" viewBox="0 0 144 44" fill="none" xmlns="http://www.w3.org/2000/svg">
<g clip-path="url(#clip0_3425_17)">
<path d="M57.1879 32.9439V10.1504H67.0212C69.8994 10.1504 72.0552 10.7962 73.4892 12.0879C74.9227 13.3686 75.6394 15.0999 75.6394 17.2815C75.6394 18.9313 75.2292 20.3315 74.4084 21.482C73.5876 22.6325 72.3507 23.452 70.6984 23.9405C71.6941 25.3406 72.6683 26.7951 73.6205 28.3038C74.5726 29.8125 75.4864 31.3592 76.3618 32.9439H72.34C71.541 31.4026 70.6984 29.8993 69.812 28.434C68.9362 26.9688 68.077 25.6283 67.2345 24.4126C67.1688 24.4126 67.0976 24.4126 67.0212 24.4126H60.6352V32.9439H57.1879ZM66.6929 13.3252H60.6352V21.3029H66.6929C68.5533 21.3029 69.9211 20.9773 70.7969 20.3261C71.6723 19.664 72.1102 18.66 72.1102 17.3141C72.1102 15.9682 71.6723 14.9696 70.7969 14.3184C69.9211 13.6563 68.5533 13.3252 66.6929 13.3252ZM86.5753 33.3346C84.9993 33.3346 83.6149 32.9765 82.4218 32.2601C81.2399 31.5437 80.315 30.5451 79.6477 29.2644C78.9911 27.9836 78.6628 26.502 78.6628 24.8197C78.6628 23.1373 78.9911 21.6557 79.6477 20.3749C80.315 19.0833 81.2399 18.0793 82.4218 17.3629C83.6149 16.6357 84.9993 16.2721 86.5753 16.2721H86.9364C88.37 16.2721 89.6287 16.6248 90.7121 17.3304C91.8062 18.025 92.6599 19.0344 93.273 20.3586C93.8857 21.672 94.1923 23.2567 94.1923 25.1127V26.1059H82.0607C82.2577 27.4409 82.7612 28.4937 83.5709 29.2644C84.3917 30.0241 85.459 30.4041 86.7723 30.4041H87.1006C87.8886 30.4041 88.6437 30.2467 89.366 29.9319C90.0883 29.6063 90.6955 29.1721 91.188 28.6294L93.2073 30.746C92.4629 31.5383 91.5436 32.1678 90.4495 32.6346C89.366 33.1013 88.1947 33.3346 86.9364 33.3346H86.5753ZM86.4768 19.2027C85.3055 19.2027 84.3261 19.588 83.5381 20.3586C82.7612 21.1184 82.2687 22.1604 82.0607 23.4846H90.8925C90.794 22.2798 90.3945 21.2649 89.6943 20.4401C89.0048 19.6151 88.0416 19.2027 86.8051 19.2027H86.4768ZM102.499 33.2695C100.769 33.2695 99.4233 32.8299 98.4605 31.9508C97.5083 31.0607 97.0321 29.8939 97.0321 28.4503C97.0321 27.0176 97.5685 25.8182 98.6408 24.8522C99.7243 23.8862 101.448 23.4032 103.812 23.4032H108.277V23.3544C108.277 20.6191 107.007 19.2515 104.469 19.2515C103.407 19.2515 102.509 19.4415 101.776 19.8214C101.054 20.2013 100.468 20.7331 100.02 21.4169L97.771 19.6097C98.4711 18.5352 99.3904 17.7103 100.529 17.135C101.678 16.5597 102.98 16.2721 104.436 16.2721H104.797C106.81 16.2721 108.43 16.8474 109.656 17.9979C110.882 19.1484 111.495 20.8688 111.495 23.159V32.9439H108.343V30.2901C107.708 31.2452 106.893 31.9833 105.897 32.5043C104.901 33.0144 103.768 33.2695 102.499 33.2695ZM103.221 30.3715C104.49 30.3715 105.547 30.0893 106.389 29.5249C107.232 28.9496 107.861 28.1736 108.277 27.1967V25.9593H103.943C102.652 25.9593 101.727 26.1655 101.169 26.578C100.622 26.9796 100.348 27.5277 100.348 28.2224C100.348 29.6551 101.306 30.3715 103.221 30.3715ZM123.21 33.3346C121.634 33.3346 120.239 32.9927 119.024 32.3089C117.809 31.6251 116.857 30.6483 116.168 29.3783C115.489 28.0976 115.15 26.578 115.15 24.8197C115.15 23.0504 115.489 21.5309 116.168 20.261C116.846 18.9802 117.787 17.9979 118.991 17.3141C120.206 16.6194 121.612 16.2721 123.21 16.2721H123.571C124.841 16.2721 126.039 16.5977 127.166 17.249C128.304 17.8893 129.224 18.7739 129.924 19.9028L127.38 21.6611C126.909 20.923 126.346 20.3478 125.689 19.9353C125.032 19.512 124.288 19.3004 123.456 19.3004H123.128C121.705 19.3004 120.583 19.7996 119.763 20.7982C118.953 21.7859 118.548 23.121 118.548 24.8034C118.548 26.4749 118.953 27.8099 119.763 28.8085C120.583 29.8071 121.705 30.3064 123.128 30.3064H123.456C124.288 30.3064 125.054 30.1218 125.755 29.7528C126.455 29.3838 127.057 28.8899 127.56 28.2712L129.924 30.2575C129.191 31.2127 128.266 31.967 127.15 32.5206C126.044 33.0633 124.851 33.3346 123.571 33.3346H123.21ZM140.914 33.1556C138.966 33.1556 137.483 32.6671 136.465 31.6903C135.447 30.7134 134.938 29.2101 134.938 27.1804V19.4958H131.721V16.6628H134.938V11.8111H138.222V16.6628H143.754V19.4958H138.222V26.7408C138.222 28.0216 138.49 28.9116 139.026 29.4109C139.562 29.9102 140.356 30.1598 141.406 30.1598C141.91 30.1598 142.358 30.1381 142.752 30.0947C143.157 30.0513 143.573 29.997 144 29.9319V32.7811C143.562 32.8896 143.07 32.9765 142.523 33.0416C141.976 33.1175 141.439 33.1556 140.914 33.1556Z" fill="#23272F"/>
<path d="M23.957 26.8946C26.5179 26.8946 28.5939 24.7609 28.5939 22.1289C28.5939 19.4969 26.5179 17.3633 23.957 17.3633C21.3962 17.3633 19.3202 19.4969 19.3202 22.1289C19.3202 24.7609 21.3962 26.8946 23.957 26.8946Z" fill="#087EA4"/>
<path d="M48.1717 22.0005C48.1717 18.3884 44.8166 15.2171 39.4777 13.1363C40.3407 7.47494 39.2656 2.98704 36.1287 1.181C33.3273 -0.433273 29.4477 0.356691 25.2041 3.40777C24.8284 3.67682 24.4557 3.96305 24.0829 4.26071C23.713 3.96305 23.3403 3.67682 22.9675 3.40777C18.7238 0.356691 14.8443 -0.436135 12.0429 1.181C8.90886 2.98704 7.8336 7.47205 8.69955 13.1277C3.35481 15.2114 0 18.3856 0 22.0005C0 25.6126 3.35481 28.7839 8.69382 30.8647C7.83076 36.5261 8.90602 41.0141 12.0429 42.82C12.992 43.3668 14.0672 43.6386 15.2371 43.6386C17.5167 43.6386 20.1632 42.6082 22.9675 40.5933C23.3431 40.3243 23.7159 40.0378 24.0886 39.7403C24.4585 40.0378 24.8313 40.3243 25.2041 40.5933C28.0083 42.611 30.6549 43.6386 32.9344 43.6386C34.1043 43.6386 35.1796 43.3668 36.1287 42.82C38.9301 41.2057 40.183 37.4563 39.6585 32.2614C39.6127 31.8035 39.5522 31.3398 39.4777 30.8675C44.8198 28.7867 48.1717 25.6154 48.1717 22.0005ZM26.546 5.26532C28.9316 3.55087 31.1509 2.65788 32.9344 2.65788C33.7057 2.65788 34.3939 2.82389 34.9817 3.16163C37.0348 4.34656 37.9122 7.74399 37.2842 12.375C35.2197 11.7425 32.9344 11.2588 30.4771 10.9496C29.0062 9.01765 27.4463 7.27459 25.8492 5.78624C26.0815 5.60881 26.3137 5.43134 26.546 5.26532ZM13.1898 3.16163C13.7777 2.82389 14.4658 2.65788 15.2371 2.65788C17.0206 2.65788 19.24 3.54802 21.6256 5.26532C21.8578 5.43134 22.0901 5.60592 22.3224 5.78624C20.7252 7.27459 19.1683 9.01481 17.6973 10.9468C15.2428 11.2559 12.9547 11.7425 10.8902 12.3721C10.2622 7.74399 11.1368 4.34656 13.1898 3.16163ZM2.29388 22.0005C2.29388 19.6335 4.80567 17.1749 9.13826 15.4032C9.62285 17.5012 10.3454 19.7194 11.3002 21.9948C10.3397 24.2731 9.61712 26.4941 9.13252 28.595C4.80567 26.8233 2.29388 24.3675 2.29388 22.0005ZM21.6256 38.7356C18.2077 41.1915 15.1339 41.9583 13.1898 40.8395C11.1368 39.6546 10.2594 36.2571 10.8873 31.626C12.9518 32.2586 15.2371 32.7423 17.6945 33.0514C19.1654 34.9833 20.7252 36.7264 22.3224 38.2148C22.0901 38.3951 21.8578 38.5697 21.6256 38.7356ZM24.0858 36.7236C21.2184 34.1018 18.4629 30.5985 16.1375 26.58C15.5152 25.5067 14.2573 22.8088 13.7469 21.7641C13.3397 22.7372 12.9375 23.63 12.6221 24.5802C12.8802 25.0582 13.8751 27.244 14.1504 27.722C14.6952 28.6637 15.2658 29.5796 15.8536 30.4668C14.2049 30.1778 12.6794 29.8057 11.2916 29.3678C12.0801 25.8129 13.6543 21.7143 16.1375 17.421C16.7482 16.3649 18.0751 14.0067 18.7404 13.0279C17.6909 13.1624 16.8482 13.1179 15.8618 13.321C15.575 13.7847 14.4257 15.801 14.1504 16.279C13.5998 17.2292 13.0952 18.1795 12.6221 19.124C12.0486 17.5527 11.6099 16.0472 11.2974 14.6275C14.7755 13.5313 19.1195 12.8415 24.0858 12.8415C25.3273 12.8415 27.9203 12.8164 29.0787 12.8994C28.4393 12.0608 27.8909 11.3017 27.2228 10.5518C26.6809 10.5346 24.6392 10.5518 24.0858 10.5518C22.9905 10.5518 21.9181 10.589 20.8657 10.6519C21.9095 9.41262 22.9905 8.27921 24.0858 7.27744C26.9503 9.8992 29.7087 13.4025 32.0341 17.421C32.6448 18.4772 33.9645 20.9358 34.4834 22.0005C34.8935 21.0274 35.2814 20.1398 35.5996 19.1839C35.3416 18.703 34.2964 16.7513 34.0211 16.2761C33.4764 15.3345 32.9058 14.4186 32.3179 13.5342C33.9667 13.8233 35.4921 14.1953 36.8799 14.6333C36.0914 18.1881 34.5172 22.2867 32.0341 26.58C31.4233 27.6361 29.6852 30.0547 29.02 31.0336C30.0694 30.899 31.2059 30.6979 32.1923 30.4947C32.479 30.0311 33.7459 28.2 34.0211 27.722C34.5688 26.7775 35.0735 25.833 35.5408 24.8913C36.0971 26.4197 36.5387 27.9224 36.8598 29.3763C33.3846 30.4726 29.0463 31.1595 24.0858 31.1595C22.8442 31.1595 19.9575 30.9965 18.7991 30.9135C19.4386 31.7521 20.1273 32.6252 20.7953 33.3751C21.3372 33.3922 23.5324 33.4492 24.0858 33.4492C25.1811 33.4492 26.2535 33.412 27.3058 33.349C26.2592 34.5884 25.1811 35.7218 24.0858 36.7236ZM34.9817 40.8395C33.0377 41.9615 29.961 41.1942 26.546 38.7356C26.3137 38.5697 26.0815 38.3951 25.8492 38.2148C27.4463 36.7264 29.0033 34.9862 30.4742 33.0542C32.9258 32.7451 35.2083 32.2614 37.2699 31.6317C37.31 31.9208 37.3502 32.2099 37.3788 32.4933C37.8003 36.6778 36.9258 39.7174 34.9817 40.8395ZM39.039 28.5978C38.5458 26.4684 37.8147 24.2502 36.8713 22.0091C37.8319 19.7308 38.5545 17.5097 39.039 15.4089C43.3657 17.1806 45.8778 19.6335 45.8778 22.0005C45.8778 24.3675 43.3689 26.8233 39.039 28.5978Z" fill="#087EA4"/>
</g>
<defs>
<clipPath id="clip0_3425_17">
<rect width="144" height="43.2773" fill="white" transform="translate(0 0.361328)"/>
</clipPath>
</defs>
</svg>
