<svg width="242" height="30" viewBox="0 0 242 30" fill="none" xmlns="http://www.w3.org/2000/svg">
<g clip-path="url(#clip0_3425_426)">
<path d="M25.0129 0C18.3463 0 14.1798 3.33328 12.5134 10.0003C15.0135 6.66656 17.9304 5.41652 21.2637 6.2502C23.1654 6.72516 24.5247 8.10564 26.0294 9.63263C28.4804 12.1204 31.3174 15 37.5137 15C44.1803 15 48.3468 11.6667 50.0136 4.99969C47.5136 8.33344 44.5967 9.58348 41.2634 8.7498C39.3616 8.27484 38.0024 6.89436 36.4976 5.36737C34.0462 2.87958 31.2097 0 25.0129 0ZM12.5134 15C5.84685 15 1.68037 18.3333 0.0134888 25.0003C2.51357 21.6666 5.43001 20.4165 8.76329 21.2502C10.6655 21.7261 12.0243 23.1056 13.529 24.6326C15.98 27.1204 18.8175 30 25.0133 30C31.6804 30 35.8469 26.6667 37.5137 19.9997C35.0136 23.3334 32.0967 24.5835 28.7635 23.7498C26.8617 23.2748 25.5025 21.8944 23.9977 20.3678C21.5468 17.8796 18.7097 15 12.5134 15Z" fill="#38BDF8"/>
<path d="M75.0094 12.6409H70.6468V21.0854C70.6468 23.3374 72.1242 23.302 75.0094 23.1611V26.5743C69.169 27.278 66.8466 25.6593 66.8466 21.0854V12.6409H63.6093V8.98157H66.8466V4.25552L70.6463 3.12978V8.98157H75.0094V12.6409ZM91.6413 8.98157H95.4411V26.5748H91.6413V24.0416C90.3039 25.906 88.2282 27.0322 85.4833 27.0322C80.6986 27.0322 76.7226 22.9858 76.7226 17.7786C76.7226 12.536 80.6986 8.52503 85.4838 8.52503C88.2282 8.52503 90.3043 9.65078 91.6413 11.4802V8.98157ZM86.0816 23.4083C89.2481 23.4083 91.6413 21.0505 91.6413 17.7786C91.6413 14.5068 89.2485 12.149 86.0816 12.149C82.9147 12.149 80.5224 14.5063 80.5224 17.7786C80.5224 21.0509 82.9152 23.4083 86.0816 23.4083ZM101.774 6.34255C100.437 6.34255 99.3467 5.21633 99.3467 3.9143C99.3479 3.2708 99.6041 2.65401 100.059 2.19899C100.514 1.74396 101.131 1.48778 101.774 1.48653C102.418 1.48778 103.035 1.74396 103.49 2.19899C103.945 2.65401 104.201 3.2708 104.202 3.9143C104.202 5.21633 103.111 6.34255 101.774 6.34255ZM99.8746 26.5738V8.98157H103.674V26.5748L99.8746 26.5738ZM108.072 26.5738V0.88916H111.873V26.5743L108.072 26.5738ZM136.537 8.9811H140.548L135.025 26.5748H131.295L127.635 14.7171L123.941 26.5748H120.212L114.687 8.98204H118.698L122.112 21.1209L125.806 8.98204H129.43L133.089 21.1209L136.537 8.9811ZM145.264 6.34255C143.926 6.34255 142.836 5.21633 142.836 3.9143C142.837 3.2708 143.093 2.65401 143.548 2.19899C144.003 1.74396 144.62 1.48778 145.264 1.48653C145.907 1.48778 146.524 1.74396 146.979 2.19899C147.434 2.65401 147.69 3.2708 147.691 3.9143C147.691 5.21633 146.601 6.34255 145.264 6.34255ZM143.364 26.5738V8.98157H147.163V26.5748L143.364 26.5738ZM160.815 8.52362C164.756 8.52362 167.571 11.1981 167.571 15.772V26.5738H163.771V16.1595C163.771 13.4855 162.222 12.0781 159.83 12.0781C157.332 12.0781 155.362 13.5559 155.362 17.1444V26.5748H151.562V8.98157H155.362V11.2335C156.523 9.40408 158.423 8.52409 160.816 8.52409L160.815 8.52362ZM185.586 1.94449H189.386V26.5748H185.586V24.0416C184.249 25.906 182.173 27.0322 179.429 27.0322C174.643 27.0322 170.667 22.9858 170.667 17.7786C170.667 12.536 174.643 8.52503 179.429 8.52503C182.173 8.52503 184.249 9.65078 185.586 11.4802V1.94449ZM180.026 23.4083C183.193 23.4083 185.586 21.0505 185.586 17.7786C185.586 14.5068 183.193 12.149 180.026 12.149C176.86 12.149 174.467 14.5063 174.467 17.7786C174.467 21.0509 176.86 23.4083 180.026 23.4083ZM202.123 27.0322C196.81 27.0322 192.834 22.9858 192.834 17.7786C192.834 12.536 196.81 8.52503 202.123 8.52503C205.571 8.52503 208.562 10.319 209.969 13.0635L206.697 14.9633C205.923 13.3102 204.199 12.2544 202.088 12.2544C198.991 12.2544 196.634 14.6117 196.634 17.7786C196.634 20.9456 198.991 23.3024 202.088 23.3024C204.199 23.3024 205.923 22.2117 206.767 20.5935L210.039 22.4579C208.562 25.2378 205.571 27.0322 202.123 27.0322H202.123ZM216.302 13.8376C216.302 17.0395 225.767 15.1042 225.767 21.6138C225.767 25.1324 222.706 27.0322 218.906 27.0322C215.388 27.0322 212.854 25.449 211.728 22.9158L215.001 21.0155C215.563 22.5987 216.971 23.5487 218.906 23.5487C220.595 23.5487 221.897 22.9863 221.897 21.5784C221.897 18.4469 212.432 20.2064 212.432 13.908C212.432 10.6007 215.282 8.52503 218.871 8.52503C221.756 8.52503 224.149 9.86156 225.38 12.1839L222.179 13.9784C221.545 12.6064 220.314 11.9727 218.871 11.9727C217.499 11.9727 216.302 12.571 216.302 13.8376ZM232.523 13.8376C232.523 17.0395 241.988 15.1042 241.988 21.6138C241.988 25.1324 238.927 27.0322 235.126 27.0322C231.608 27.0322 229.075 25.449 227.949 22.9158L231.221 21.0155C231.784 22.5987 233.192 23.5487 235.126 23.5487C236.816 23.5487 238.117 22.9863 238.117 21.5784C238.117 18.4469 228.652 20.2064 228.652 13.908C228.652 10.6007 231.502 8.52503 235.092 8.52503C237.976 8.52503 240.369 9.86156 241.601 12.1839L238.399 13.9784C237.766 12.6064 236.534 11.9727 235.092 11.9727C233.719 11.9727 232.523 12.571 232.523 13.8376Z" fill="#0F172A"/>
</g>
<defs>
<clipPath id="clip0_3425_426">
<rect width="241.974" height="30" fill="white" transform="translate(0.0131836)"/>
</clipPath>
</defs>
</svg>
