<svg width="72" height="72" viewBox="0 0 72 72" fill="none" xmlns="http://www.w3.org/2000/svg">
<g clip-path="url(#clip0_3425_264)">
<path d="M72.0094 0H0.00939941V72H72.0094V0Z" fill="#F7DF1E"/>
<path d="M48.3751 56.2505C49.8254 58.6185 51.7122 60.3591 55.0494 60.3591C57.8528 60.3591 59.6437 58.9579 59.6437 57.0219C59.6437 54.7019 57.8037 53.8802 54.718 52.5305L53.0265 51.8048C48.1442 49.7248 44.9008 47.1191 44.9008 41.6105C44.9008 36.5362 48.7671 32.6733 54.8094 32.6733C59.1111 32.6733 62.2037 34.1705 64.4322 38.0905L59.1637 41.4733C58.0037 39.3933 56.7522 38.5739 54.8094 38.5739C52.8277 38.5739 51.5717 39.8311 51.5717 41.4733C51.5717 43.5031 52.8288 44.3248 55.7317 45.5819L57.4231 46.3065C63.1717 48.7716 66.4174 51.2848 66.4174 56.9351C66.4174 63.0265 61.6322 66.3636 55.206 66.3636C48.9225 66.3636 44.8631 63.3693 42.8768 59.4448L48.3751 56.2505ZM24.4745 56.8368C25.5374 58.7225 26.5042 60.3168 28.8288 60.3168C31.0517 60.3168 32.454 59.4471 32.454 56.0653V33.0596H39.2197V56.1568C39.2197 63.1625 35.1122 66.3511 29.1168 66.3511C23.6997 66.3511 20.5625 63.5476 18.9671 60.1711L24.4745 56.8368Z" fill="black"/>
</g>
<defs>
<clipPath id="clip0_3425_264">
<rect width="72" height="72" fill="white" transform="translate(0.00939941)"/>
</clipPath>
</defs>
</svg>
